<svg width="49" height="49" viewBox="0 0 49 49" fill="none" xmlns="http://www.w3.org/2000/svg">
<g opacity="0.8">
<path d="M32.9502 25.8382V22.6382H36.1502V25.8382H32.9502Z" fill="#F8F8F8"/>
<path fill-rule="evenodd" clip-rule="evenodd" d="M24.9504 1.58582L45.7504 13.7191V34.7572L24.9504 46.8903L4.15039 34.7572V13.7191L24.9504 1.58582ZM21.2114 13.0382C15.3235 13.0382 10.5504 17.8112 10.5504 23.6992V24.7772C10.5504 30.6651 15.3235 35.4382 21.2114 35.4382C22.8665 35.4382 24.4988 35.0529 25.9791 34.3127L27.2659 33.6692L25.8348 30.8071L24.548 31.4505C23.5121 31.9685 22.3697 32.2382 21.2114 32.2382C17.0908 32.2382 13.7504 28.8978 13.7504 24.7772V23.6992C13.7504 19.5785 17.0908 16.2382 21.2114 16.2382C22.3697 16.2382 23.5121 16.5078 24.548 17.0258L25.8348 17.6692L27.2659 14.8071L25.9791 14.1637C24.4988 13.4235 22.8665 13.0382 21.2114 13.0382ZM29.7504 16.2382V19.4382H26.5504V22.6382H29.7504V25.8382H26.5504V29.0382H29.7504V32.2382H32.9504V29.0382H36.1504V32.2382H39.3504V29.0382H42.5504V25.8382H39.3504V22.6382H42.5504V19.4382H39.3504V16.2382H36.1504V19.4382H32.9504V16.2382H29.7504Z" fill="#F8F8F8"/>
</g>
</svg>
