<svg width="49" height="49" viewBox="0 0 49 49" fill="none" xmlns="http://www.w3.org/2000/svg">
<g opacity="0.8" clip-path="url(#clip0_244_88)">
<path d="M14.0526 32.6785C13.6979 32.8296 13.2014 33.034 12.8013 33.16C11.9538 33.427 11.2739 33.535 10.5771 33.6407C11.4149 36.3268 14.6969 38.9646 18.5241 38.7156C22.132 38.7156 24.6299 36.937 25.9589 34.3573C22.1901 34.3041 16.7001 35.8731 14.0526 32.6785ZM48.4908 33.1213C47.173 33.2785 46.2318 33.0133 44.0725 33.7063C38.8454 35.8592 33.6723 34.0333 32.0253 33.6763C31.4845 33.6201 31.2366 32.8288 30.127 34.138L29.5859 34.7758C32.1404 37.2895 35.6421 38.7321 39.2684 38.7321C44.1509 38.7321 47.452 36.3741 48.5489 33.1712L48.4908 33.1213Z" fill="#F8F8F8"/>
<path d="M48.768 28.9266C45.897 26.9327 45.3229 28.3742 43.8832 29.9304C44.0164 30.2709 44.0884 30.6579 44.0884 31.1079C44.0884 33.2094 42.3994 34.5696 39.3919 34.5696C36.8782 34.5696 34.2829 33.3336 32.3467 31.5204L30.1267 34.1379C33.1327 34.2729 36.1755 35.0492 39.219 34.9292C42.5497 34.7972 46.9496 33.7427 48.4909 33.1217L48.5494 33.1712C48.8163 32.3876 48.9517 31.5652 48.9502 30.7374C48.9502 30.0823 48.8865 29.4812 48.768 28.9266ZM27.0832 28.9701C25.4565 27.7292 23.8972 28.1518 22.4021 29.9049V30.2049C22.4021 32.5806 20.4825 34.5062 18.1147 34.5062C17.3881 34.5063 16.6734 34.3215 16.0379 33.9692C15.4024 33.6169 14.867 33.1087 14.4821 32.4924C14.4821 32.4924 14.295 32.5749 14.0527 32.6781C15.1732 34.0903 16.5502 34.8204 19.2829 34.9292C21.5085 35.0173 23.7341 34.6273 25.9597 34.3573C26.7034 32.9151 27.0832 31.2231 27.0832 29.4489V28.9701Z" fill="#F8F8F8"/>
<path d="M27.083 23.876C25.5635 22.5391 24.0166 22.2695 22.4019 24.3095V29.9049C23.9675 29.5404 25.5294 29.1699 27.083 28.97V23.876ZM45.1996 24.2825C42.8626 23.2595 35.8651 24.2829 34.628 24.7516C35.1391 25.0529 35.6708 25.3178 36.2191 25.5444L39.8862 27.1516C41.8584 27.9736 43.3569 28.5868 43.883 29.9304C45.3969 29.7106 46.7022 29.4091 47.5711 29.2093L48.7674 28.9265C48.3087 26.7849 47.009 25.3471 45.1996 24.2825Z" fill="#F8F8F8"/>
<path d="M30.7872 18.7168C30.9102 21.6883 32.6307 23.567 34.6374 24.7554C36.1689 25.0576 37.7004 25.3198 39.2319 25.3198C41.3697 25.3198 43.5054 24.8105 45.2019 24.2833C44.6577 23.9665 44.0932 23.6859 43.5121 23.4433L39.8866 21.9185C38.0956 21.1888 36.4122 20.5385 35.8235 19.2166C32.2107 17.3821 34.634 16.2245 30.788 18.7171L30.7872 18.7168ZM27.0834 19.0768C25.7094 18.1288 24.1591 18.4126 22.4019 19.9351L22.4022 24.3125C23.9622 24.1561 25.523 23.9484 27.0834 23.876V19.0768Z" fill="#F8F8F8"/>
<path d="M32.4009 13.9157C31.3696 15.1551 30.7809 16.6877 30.7809 18.3745C30.7809 18.49 30.7835 18.604 30.788 18.7165C32.4582 18.7 34.1386 18.8852 35.8235 19.2171C35.673 18.8737 35.5974 18.5022 35.6019 18.1274C35.6019 16.1492 37.2496 14.9541 39.8045 14.9541C42.1111 14.9541 43.9655 15.8196 45.6545 17.2615L47.4481 15.0501C42.2067 13.4301 37.5219 12.4112 32.4016 13.9154L32.4009 13.9157ZM27.0834 14.9747C25.1499 13.2767 23.6656 14.5292 22.4019 16.8985V19.9352C23.9626 19.6934 25.5226 19.3401 27.0834 19.0765V14.9747Z" fill="#F8F8F8"/>
<path d="M22.4019 10.7924V16.8989C23.9626 16.372 25.5226 15.5927 27.0834 14.9744V10.7924H22.4019ZM39.8037 10.7924C36.6316 10.7924 33.9909 12.0055 32.4012 13.9146C34.6636 13.9232 36.941 14.3804 39.2187 14.6522C42.4771 15.0415 45.7242 15.0497 47.4474 15.0497L48.1269 14.2124C46.0254 12.1105 42.9762 10.7924 39.8037 10.7924Z" fill="#F8F8F8"/>
<path d="M0.950195 10.7924V31.4181H8.75882C10.8056 31.4181 12.3731 31.0937 13.8288 30.3595C13.8262 30.3089 13.8262 30.2571 13.8262 30.2057C13.8262 27.8301 15.7462 25.9052 18.1147 25.9052C18.1848 25.9052 18.2542 25.9067 18.3236 25.9105C19.0664 24.3981 19.3661 22.8985 19.3661 20.9282C19.3661 18.8954 18.9836 17.1261 18.2171 15.5946C17.4217 14.092 16.2723 12.9134 14.7408 12.0584C13.2078 11.2045 11.3519 10.7924 9.1417 10.7924H0.950195ZM5.90019 15.2117H8.87657C10.6154 15.2117 11.9411 15.7131 12.8253 16.7444C13.7092 17.7752 14.1509 19.1894 14.1509 21.0164C14.1509 22.8726 13.6788 24.3171 12.7657 25.3776C11.8526 26.4677 10.4969 26.998 8.69919 26.998H5.90057L5.90019 15.2117ZM18.1271 27.4967C17.7666 27.4894 17.4084 27.554 17.0733 27.6869C16.7381 27.8197 16.4329 28.0181 16.1754 28.2704C15.9179 28.5227 15.7133 28.8239 15.5737 29.1562C15.434 29.4886 15.3621 29.8454 15.3621 30.2059C15.3621 30.5664 15.434 30.9233 15.5737 31.2556C15.7133 31.588 15.9179 31.8891 16.1754 32.1414C16.4329 32.3937 16.7381 32.5921 17.0733 32.725C17.4084 32.8578 17.7666 32.9225 18.1271 32.9151C18.8378 32.9033 19.5155 32.6126 20.0139 32.1058C20.5124 31.599 20.7917 30.9166 20.7917 30.2057C20.7917 29.4949 20.5124 28.8125 20.0139 28.3057C19.5155 27.7988 18.8378 27.5086 18.1271 27.4967Z" fill="#F8F8F8"/>
</g>
<defs>
<clipPath id="clip0_244_88">
<rect width="48" height="48" fill="white" transform="translate(0.950195 0.761841)"/>
</clipPath>
</defs>
</svg>
