<svg width="49" height="49" viewBox="0 0 49 49" fill="none" xmlns="http://www.w3.org/2000/svg">
<g opacity="0.8">
<path d="M31.5498 16.7858C33.5389 16.7858 35.4466 15.9956 36.8531 14.5891C38.2596 13.1825 39.0498 11.2749 39.0498 9.28577C39.0498 7.29664 38.2596 5.38899 36.8531 3.98247C35.4466 2.57594 33.5389 1.78577 31.5498 1.78577H16.5498C14.5607 1.78577 12.653 2.57594 11.2465 3.98247C9.83998 5.38899 9.04981 7.29664 9.04981 9.28577C9.04981 11.2749 9.83998 13.1825 11.2465 14.5891C12.653 15.9956 14.5607 16.7858 16.5498 16.7858C14.5607 16.7858 12.653 17.5759 11.2465 18.9825C9.83998 20.389 9.04981 22.2966 9.04981 24.2858C9.04981 26.2749 9.83998 28.1825 11.2465 29.5891C12.653 30.9956 14.5607 31.7858 16.5498 31.7858C15.0664 31.7858 13.6164 32.2256 12.383 33.0497C11.1497 33.8739 10.1884 35.0452 9.62071 36.4156C9.05305 37.7861 8.90453 39.2941 9.19392 40.7489C9.48331 42.2038 10.1976 43.5402 11.2465 44.5891C12.2954 45.638 13.6318 46.3523 15.0866 46.6417C16.5415 46.931 18.0495 46.7825 19.4199 46.2149C20.7904 45.6472 21.9617 44.6859 22.7858 43.4525C23.6099 42.2192 24.0498 40.7691 24.0498 39.2858V16.7858H31.5498Z" fill="#F8F8F8"/>
<path d="M31.5498 31.7858C35.6919 31.7858 39.0498 28.4279 39.0498 24.2858C39.0498 20.1436 35.6919 16.7858 31.5498 16.7858C27.4077 16.7858 24.0498 20.1436 24.0498 24.2858C24.0498 28.4279 27.4077 31.7858 31.5498 31.7858Z" fill="#F8F8F8"/>
</g>
</svg>
