<svg width="49" height="49" viewBox="0 0 49 49" fill="none" xmlns="http://www.w3.org/2000/svg">
<g opacity="0.8">
<path d="M28.5103 37.3418C28.5103 37.5818 28.8103 37.3418 28.5103 37.3418V37.3418Z" fill="#F8F8F8"/>
<path d="M21.8104 31.9419C21.1904 30.7419 22.5904 32.2819 21.8104 31.9419V31.9419Z" fill="#F8F8F8"/>
<path d="M11.75 32.5019C11.75 32.2619 12.05 33.0219 11.75 32.5019V32.5019Z" fill="#F8F8F8"/>
<path d="M22.9501 33.2819C22.4101 32.4419 22.5501 33.4019 22.9501 33.9219C23.9101 34.8619 23.3101 33.4019 22.9501 33.2819Z" fill="#F8F8F8"/>
<path d="M41.43 38.8819C40.37 40.1419 39.43 38.7419 38.17 39.1419C35.97 39.1419 38.35 38.1419 38.29 37.1419C37.13 36.2419 35.81 38.3619 35.05 38.9419C33.2053 38.6234 31.4101 38.0653 29.71 37.2819C27.7299 36.3572 25.9602 35.0368 24.51 33.4019C22.8874 31.7847 21.6144 29.8514 20.77 27.7219C19.6906 23.9894 19.1253 20.1271 19.09 16.2419C19.23 13.6419 21.97 16.5219 23.09 15.5819C22.67 14.2419 20.51 13.8219 19.31 13.2619C18.15 13.2619 17.73 12.1619 16.51 12.0819C16.51 10.6219 14.25 11.4219 13.39 10.4019C14.23 8.24187 10.65 10.4019 10.93 8.58187C12.09 6.18187 7.37 6.58187 9.33 8.70187C11.23 9.78187 7.47 10.5619 8.57 11.2819C8.66301 11.4626 8.70778 11.6642 8.69997 11.8673C8.69215 12.0704 8.63202 12.268 8.52539 12.441C8.41877 12.614 8.26927 12.7566 8.09138 12.8548C7.91348 12.9531 7.71322 13.0037 7.51 13.0019C6.03 13.1419 6.17 15.1819 7.63 14.1019C9.25 13.6019 7.91 14.3219 7.13 14.4619C6.71838 14.5245 6.32782 14.685 5.99116 14.93C5.65449 15.1749 5.38159 15.4972 5.19539 15.8696C5.00919 16.242 4.91515 16.6536 4.92117 17.0699C4.92719 17.4862 5.03311 17.895 5.23 18.2619C6.01133 20.5068 6.67884 22.7897 7.23 25.1019C8.4645 28.6069 10.291 31.8743 12.63 34.7619C13.8599 36.3055 15.3164 37.6541 16.95 38.7619C18.4499 39.7951 20.0854 40.6162 21.81 41.2019C24.8843 42.1074 28.0657 42.5985 31.27 42.6619C33.2137 42.6727 35.1545 42.5121 37.07 42.1819C38.81 42.3619 40.05 40.8819 41.59 41.6619C42.55 40.8219 43.91 41.2019 44.85 40.5819C45.49 38.1419 42.41 40.0419 41.43 38.8819ZM37.95 37.4019C37.51 37.4019 38.05 36.7219 37.95 37.4019V37.4019ZM22.69 15.4019C22.49 15.4019 22.53 15.1619 22.37 15.1019C20.77 14.3619 23.15 14.6419 22.69 15.4819V15.4019ZM36.21 38.1819C35.51 38.0219 36.77 37.6819 36.21 38.1819V38.1819ZM30.59 38.4019C30.13 38.4019 30.95 38.1219 30.59 38.4019V38.4019ZM26.83 36.0419C26.57 36.0419 26.83 35.7819 26.83 36.0419V36.0419ZM26.39 35.7019C25.67 35.7019 26.21 35.2419 26.39 35.7019V35.7019ZM25.55 34.9819C24.89 35.1419 25.55 34.3019 25.55 34.9819V34.9819ZM13.55 11.6619C12.49 11.1019 13.77 12.3219 12.87 12.3019C12.39 12.3019 11.49 11.2619 11.79 10.7419C12.39 11.0619 13.45 11.1619 13.63 11.7419L13.55 11.6619ZM11.71 10.0419H11.49C11.43 9.50187 13.23 9.92187 11.79 10.1219L11.71 10.0419ZM9.67 8.46187C8.83 8.08187 9.67 6.60187 10.55 7.30187C11.57 8.76187 8.65 7.14187 9.67 8.46187ZM10.65 9.84187C10.11 10.0619 10.97 9.42187 10.65 9.84187V9.84187ZM11.61 11.6819C12.81 12.6019 10.93 11.6819 10.17 12.2619C8.95 12.3819 11.49 11.5819 11.61 11.6819ZM11.95 12.8819C12.65 12.8819 15.71 11.5019 14.69 12.7419C15.63 13.8419 14.89 13.4819 14.27 12.7419C14.83 13.1219 14.39 14.7419 13.53 13.6419C12.67 12.5419 12.53 13.2819 13.19 14.0619C12.55 12.7619 10.71 13.3219 9.37 13.7619C8.51 13.6819 11.63 13.0219 11.95 12.8819ZM8.11 15.7819C7.79 16.5819 8.59 16.8419 9.35 16.9819C10.59 16.6419 8.53 16.4219 9.47 16.1019C9.99 16.1019 7.83 15.5819 9.63 15.3419C11.43 15.1019 13.13 14.3019 14.95 13.9219C16.4922 13.5828 18.0734 13.4549 19.65 13.5419C20.25 14.2419 19.19 15.4219 18.11 15.5419C16.8122 15.9593 15.4695 16.2211 14.11 16.3219C12.51 16.1219 11.37 17.5419 9.73 17.7219C10.17 16.9219 9.37 17.4419 8.55 17.4019C8.97 19.0419 5.61 16.9819 7.59 16.5819C6.11 16.0619 6.09 17.6219 6.25 18.5819C4.95 16.7619 6.39 16.0019 8.11 15.7819ZM11.87 17.9419C11.43 17.8419 12.21 17.5419 11.87 17.9419V17.9419ZM10.43 19.7019C10.43 19.7019 9.75 19.5419 10.03 19.3619C12.03 19.6219 8.23 18.7019 10.29 18.9219C11.61 18.8819 11.17 19.6419 10.43 19.7019ZM11.09 20.0419C10.85 20.2819 11.09 19.5619 11.09 20.0419V20.0419ZM9.67 20.0419C8.79 19.8619 10.09 19.6019 9.67 20.0419V20.0419ZM9.55 22.9019C9.35 22.7419 9.41 23.1019 9.55 22.9019V22.9019ZM8.95 22.5619C7.85 22.1819 8.95 22.1419 8.95 22.5619V22.5619ZM8.71 25.1219C8.19 24.9419 8.21 24.1219 7.97 23.6819C7.21 21.6219 8.79 24.4819 8.63 25.1219H8.71ZM9.17 22.1419C7.79 21.9819 9.07 21.1619 9.17 22.1419V22.1419ZM9.17 21.4619H8.99C7.47 20.7619 9.89 21.1219 8.95 21.4619H9.17ZM8.95 19.8819C7.73 19.2619 10.11 19.1619 8.95 19.8819V19.8819ZM9.37 20.4019C8.69 20.5219 9.47 19.7619 9.37 20.4019V20.4019ZM6.77 20.5419C6.53 20.7019 6.77 20.0819 6.77 20.5419V20.5419ZM6.95 20.2619C6.63 20.2619 6.95 19.7219 6.95 20.2619V20.2619ZM7.11 18.2619C6.31 18.0619 7.77 17.7619 7.11 18.2619V18.2619ZM7.63 22.2619C6.75 22.0619 7.39 20.9619 7.63 22.2619V22.2619ZM8.23 24.7619C9.07 25.7819 8.75 26.3419 9.61 27.5819C8.49 26.8819 8.27 25.1819 7.61 24.0819C6.79 22.2819 8.07 24.0619 8.23 24.7619ZM16.41 37.5219C15.73 37.3819 15.27 36.6619 14.79 36.2019C13.4247 35.2026 12.3427 33.8655 11.65 32.3219C10.4986 30.8516 9.5189 29.2546 8.73 27.5619C7.91 25.7219 9.23 27.7019 9.43 28.4019C9.85 29.7619 11.19 30.5419 11.31 31.4419C12.79 32.2819 12.03 33.6819 13.31 34.0619C13.85 33.7819 13.91 35.7419 15.09 35.3419C14.43 35.6419 15.35 36.0019 15.69 36.5619C16.39 36.4619 18.03 38.2019 16.41 37.6019V37.5219ZM10.19 24.7619C9.57 24.6219 10.85 24.5419 10.19 24.7619V24.7619ZM10.59 25.7019C9.49 25.4219 11.63 25.3019 10.59 25.7019V25.7019ZM13.37 26.6419C14.17 26.3019 13.69 28.2019 14.47 28.4419C15.99 30.4419 13.41 28.4419 12.47 28.3019C12.59 28.3019 11.71 28.0619 12.09 27.9819C11.81 27.6819 11.19 26.6619 12.61 27.3419C13.81 27.8219 13.91 27.4619 13.37 26.5619V26.6419ZM15.99 30.1619C15.99 30.4619 14.55 30.4219 15.87 31.0019C15.11 31.0019 14.87 31.0019 15.87 31.6019C15.43 31.9419 16.73 32.2219 16.29 32.7419C17.61 33.7819 16.05 33.0019 15.49 32.5819C14.93 32.1619 13.79 31.8819 13.99 31.5819C15.61 32.4219 14.41 31.5819 13.69 30.9819C14.99 31.3019 12.67 30.0219 13.89 30.3619C14.27 30.4619 13.35 29.6019 14.55 30.2219C13.47 29.1819 15.49 29.9819 15.99 30.0819V30.1619ZM16.95 29.8219C15.73 29.5419 16.95 29.1419 16.95 29.8219V29.8219ZM16.61 33.8219C15.39 33.3019 17.39 33.8219 16.61 33.8219V33.8219ZM15.71 33.4819C14.29 33.0219 16.75 33.4819 15.71 33.4819V33.4819ZM15.53 33.7019C15.09 33.7019 15.53 33.3619 15.53 33.7019V33.7019ZM13.37 30.6019C11.93 30.0019 12.97 29.9419 13.37 30.6019V30.6019ZM12.29 29.9019C11.13 29.2419 12.13 29.2419 12.29 29.9019V29.9019ZM12.29 31.2019C11.15 30.3219 12.15 30.7019 12.29 31.2019V31.2019ZM11.99 28.5219C11.29 28.5219 12.25 28.1219 11.99 28.5219V28.5219ZM16.95 35.5219C15.93 35.2219 16.95 35.2419 16.95 35.5219V35.5219ZM16.21 34.7619H15.89C14.53 33.6819 16.51 34.0019 17.39 34.4819C19.33 34.7619 16.95 35.2619 16.21 34.7619ZM21.61 38.0619C20.25 37.7419 21.93 37.5219 21.61 38.0619V38.0619ZM21.27 37.0219C21.07 36.8019 21.17 37.0219 21.27 37.0219V37.0219ZM19.55 34.3419C18.37 34.0619 19.97 33.9619 20.27 34.3419C22.31 34.7619 20.15 34.8619 19.55 34.3419ZM19.97 36.7619H19.75L19.49 36.6419C18.37 35.4619 21.87 37.2019 19.97 36.7619ZM19.41 38.1419C19.11 38.2619 19.41 37.8619 19.41 38.1419V38.1419ZM19.99 35.7619L19.67 35.6619C18.35 34.7619 21.35 35.8419 19.99 35.6619V35.7619ZM20.31 39.2019C19.51 38.8819 20.83 38.7019 20.31 39.2019V39.2019ZM20.51 37.7219C19.35 37.4419 21.23 37.4619 20.51 37.7219V37.7219ZM20.77 36.5019C19.89 36.3819 20.87 36.0819 20.77 36.5019V36.5019ZM19.33 34.7419C20.25 34.8619 20.27 35.2819 19.33 35.0219C19.15 35.0219 18.85 35.0219 18.77 34.6819C17.25 33.6819 18.83 34.1819 19.33 34.6419V34.7419ZM19.21 38.7419C18.81 38.9819 19.21 38.3019 19.21 38.7419V38.7419ZM18.59 37.7219C17.53 37.7219 19.39 37.2019 18.59 37.7219V37.7219ZM18.35 38.4219C17.83 38.2219 18.69 38.2619 18.35 38.4219V38.4219ZM18.95 36.6419C17.91 36.3619 19.45 36.2819 18.95 36.6419V36.6419ZM18.63 35.5019C18.07 35.5019 18.51 35.1819 18.63 35.5019V35.5019ZM17.55 33.6019C16.41 32.6819 19.91 34.3619 17.55 33.6019V33.6019ZM17.43 33.9819C17.21 33.8019 17.43 34.1019 17.43 33.9819V33.9819ZM24.73 41.5419C22.9505 41.2243 21.2261 40.6517 19.61 39.8419L18.95 39.4419C17.81 38.8219 17.95 38.6819 19.07 39.3019C19.45 39.6219 22.25 40.7619 20.93 40.0019C20.35 39.8619 17.13 38.1019 19.25 38.8619C21.0165 39.7984 22.8479 40.6072 24.73 41.2819C26.3209 41.6594 27.9648 41.7608 29.59 41.5819C30.89 42.2419 32.25 41.4219 33.59 42.0019C30.6189 42.3599 27.6084 42.2043 24.69 41.5419H24.73ZM22.23 40.1419C21.21 39.9619 22.55 39.6819 22.23 40.1419V40.1419ZM23.69 38.1419C22.53 37.9219 24.89 37.6819 23.69 38.1419V38.1419ZM25.37 40.7619C27.37 41.5019 24.17 41.0019 23.51 40.5819C21.67 39.8219 24.95 40.7619 25.37 40.7619ZM23.25 38.5619C21.63 38.3219 25.05 38.5619 23.25 38.5619V38.5619ZM26.29 40.2619C25.71 40.7219 26.29 39.6619 26.29 40.2619V40.2619ZM26.87 40.3619C26.57 40.4819 26.87 40.0219 26.87 40.3619V40.3619ZM27.41 39.6019C27.09 40.0019 27.41 39.1419 27.41 39.6019V39.6019ZM28.03 39.6019C27.13 39.9419 28.97 38.8219 28.03 39.6019V39.6019ZM28.31 39.6019C29.29 38.7619 29.33 39.1619 29.31 39.8619C28.45 40.8219 28.97 39.4619 28.43 39.9819C27.89 40.5019 28.05 39.7819 28.31 39.6419V39.6019ZM29.97 40.5019C28.97 40.5019 30.99 39.4219 29.97 40.5019V40.5019ZM29.97 40.8619C29.57 40.9619 29.97 40.6019 29.97 40.8619V40.8619ZM29.65 40.1619C28.87 39.6419 31.53 38.9419 29.65 40.1619V40.1619ZM30.79 40.3419H30.63C30.57 39.8819 31.71 39.8019 30.79 40.3819V40.3419ZM31.09 40.7219C30.49 40.5619 32.03 39.9219 31.09 40.7219V40.7219ZM31.81 40.5219C30.79 40.8819 32.77 39.7219 31.81 40.5219V40.5219ZM32.25 40.7419L32.01 40.9019C31.55 40.6219 33.43 39.9419 32.25 40.7619V40.7419ZM31.39 39.6819C30.31 39.3219 28.59 38.1619 27.39 38.9419C25.79 39.9619 28.21 37.8219 26.91 38.7819C25.59 40.3619 26.01 37.7819 24.73 38.5619C24.73 38.3219 23.59 38.2419 24.39 37.8219C23.67 37.8219 24.13 37.7219 24.39 37.1419C24.07 37.1419 22.39 37.1419 21.67 36.5619C20.87 35.5219 21.81 35.9619 22.63 36.1019C21.29 36.3419 23.11 37.1019 23.99 36.6819C23.59 36.5019 23.13 35.6419 21.99 34.8819C20.6131 34.127 19.1903 33.4591 17.73 32.8819C16.05 31.8819 18.09 32.5219 18.67 33.0419C20.35 33.7819 19.69 32.0219 18.67 31.5619C17.59 31.5619 17.33 30.3819 16.47 30.4419C17.81 30.6619 18.75 30.1019 17.25 28.7419C15.75 27.3819 17.85 30.0019 17.03 29.6219C16.65 29.1219 16.93 28.4219 15.73 28.1619C15.73 28.6219 15.57 29.3219 15.31 28.3619C14.97 28.3619 14.59 28.7819 14.31 27.8019C14.57 26.6619 13.19 26.4019 12.97 25.6819C14.17 26.4419 14.71 25.8419 13.87 25.0219C13.03 24.2019 13.21 24.8019 12.89 25.0219C11.71 26.2219 12.77 23.0219 12.25 23.9019C11.73 23.9019 12.03 24.4819 12.05 25.2019C10.33 24.7819 12.45 26.1019 12.95 26.8219C12.17 26.0219 12.31 27.4419 11.65 26.8219C11.43 26.2219 11.41 25.2819 10.31 25.1219C11.55 24.6819 9.59 23.8219 9.75 23.7819C10.45 23.1419 10.55 22.2619 11.39 23.6419C10.33 23.6419 11.39 25.4019 11.63 24.8419C11.63 23.9019 12.07 22.8419 10.45 22.4619C9.97 23.1019 9.15 21.2019 10.09 21.6019C9.97 20.3419 11.57 21.0819 11.47 20.5419C12.31 20.1819 10.47 19.0019 11.47 18.5419C12.23 19.0219 14.19 17.8219 12.87 17.6619C13.71 17.6619 14.37 18.0219 14.45 17.1819C15.11 17.3219 16.93 17.9019 15.29 17.0019C16.0098 16.7091 16.7739 16.5401 17.55 16.5019C19.13 15.2819 18.81 18.5019 18.45 19.4019C19.05 18.9819 18.93 21.2819 18.73 22.1419C19.05 21.7019 19.19 22.8619 18.73 23.6819C18.73 23.5419 19.53 23.4219 18.97 24.3819C18.53 23.4419 18.35 26.3819 18.63 25.0219C19.37 23.8019 19.19 25.0219 19.41 25.5019C19.57 26.6019 20.05 27.6219 20.21 28.6219C20.91 29.3219 19.91 28.8419 19.91 29.8019C20.13 29.5219 21.07 30.1819 21.05 31.1619C21.05 29.6019 21.23 30.8019 21.99 31.1619C22.5015 32.2088 23.1766 33.1675 23.99 34.0019C24.73 34.8619 23.99 34.2619 24.27 34.7819C24.7636 35.4631 25.387 36.04 26.1043 36.4793C26.8217 36.9187 27.6189 37.2118 28.45 37.3419C28.758 37.8774 29.2279 38.3014 29.7921 38.553C30.3563 38.8045 30.9858 38.8707 31.59 38.7419C30.39 39.4819 34.95 39.6819 33.41 40.0819C32.95 40.4019 32.17 39.6819 31.39 39.7219V39.6819ZM18.35 32.5419C17.87 32.5419 18.35 32.1419 18.35 32.5419V32.5419ZM19.11 32.9819C18.75 32.9819 18.87 32.5019 19.11 32.9819V32.9819ZM13.89 25.6819C13.41 25.5419 14.09 25.5019 13.89 25.6819V25.6819ZM12.71 25.6819C12.19 25.6819 12.71 25.0019 12.71 25.6819V25.6819ZM12.11 25.5219C11.91 25.6219 12.11 25.3019 12.11 25.5219V25.5219ZM34.11 42.0219C33.33 41.8819 34.75 41.5819 34.11 42.0219V42.0219ZM35.57 39.9219H35.19H34.97C35.09 39.0219 37.63 39.7219 38.67 39.7419C38.35 40.4219 36.41 39.8219 35.57 40.0019V39.9219ZM39.57 39.9219C39.03 39.9219 39.81 39.2819 39.57 39.9219V39.9219ZM41.57 39.7419C41.07 40.0019 41.57 39.1419 41.57 39.7419V39.7419ZM42.53 39.9619C41.49 39.7219 43.01 39.7219 43.33 39.6819C45.21 39.7219 43.33 40.0019 42.39 40.0019L42.53 39.9619Z" fill="#F8F8F8"/>
<path d="M13.9703 14.9818C15.9703 14.5818 13.2103 14.3218 12.5903 14.9818C12.9503 15.2418 13.4103 14.5618 13.9703 14.9818Z" fill="#F8F8F8"/>
<path d="M12.3301 15.2418C12.3301 15.6218 12.6901 14.8018 12.3301 15.2418V15.2418Z" fill="#F8F8F8"/>
<path d="M17.5701 14.2819C18.9101 14.0619 17.7901 13.4619 17.3901 14.4819C17.5301 14.7619 17.6101 14.3819 17.5701 14.2819Z" fill="#F8F8F8"/>
<path d="M16.3304 14.4819C16.2304 12.4819 18.1904 15.2019 16.3304 14.4819V14.4819Z" fill="#F8F8F8"/>
<path d="M10.4902 16.3418C10.7268 16.3298 10.9601 16.4006 11.1502 16.5418C12.6502 17.5818 10.9502 14.8618 10.4902 16.3418Z" fill="#F8F8F8"/>
<path d="M10.5703 15.6218C10.8903 15.8818 11.1503 15.2018 10.5703 15.6218V15.6218Z" fill="#F8F8F8"/>
<path d="M11.3101 15.6418L11.5901 15.8818C12.9501 16.0018 11.3701 14.9618 11.3101 15.6418Z" fill="#F8F8F8"/>
<path d="M22.3301 32.7619C22.3301 31.9819 22.5101 33.3619 22.3301 32.7619V32.7619Z" fill="#F8F8F8"/>
<path d="M12.77 22.7619C12.97 23.1219 13.13 22.4019 12.77 22.7619V22.7619Z" fill="#F8F8F8"/>
<path d="M12.9502 23.9819C12.9502 22.9619 13.3302 24.6619 12.9502 23.9819V23.9819Z" fill="#F8F8F8"/>
<path d="M13.37 23.0018C12.81 21.9618 14.03 23.4218 13.37 23.0018V23.0018Z" fill="#F8F8F8"/>
<path d="M12.5502 21.3619C12.6902 21.6619 13.0302 21.6819 13.2902 21.7619C15.9302 22.9819 11.3902 19.7619 12.5502 21.3619Z" fill="#F8F8F8"/>
<path d="M13.6304 24.2218C13.9904 23.4818 14.2504 25.2818 13.6304 24.2218V24.2218Z" fill="#F8F8F8"/>
<path d="M14.5902 23.9017C15.3302 25.7417 14.1302 23.6617 13.9902 23.0417C14.0074 23.7447 14.1999 24.4321 14.5502 25.0417C15.2302 26.0617 14.9302 24.4817 15.6502 25.5017C15.2502 24.6017 15.8502 25.1017 15.7702 24.7017C15.6902 24.3017 13.7702 22.3617 14.5902 23.9017Z" fill="#F8F8F8"/>
<path d="M15.3101 27.4619C15.4901 28.0819 15.6701 27.4619 15.3101 27.4619V27.4619Z" fill="#F8F8F8"/>
<path d="M12.6504 18.7617C12.7704 19.0417 12.8704 18.7617 12.6504 18.7617V18.7617Z" fill="#F8F8F8"/>
<path d="M13.9902 19.6018C14.3302 18.8818 14.6302 20.4218 13.9902 19.6018V19.6018Z" fill="#F8F8F8"/>
<path d="M12.21 21.8818L12.49 22.1818C14.47 22.7618 10.39 20.2818 12.21 21.8818Z" fill="#F8F8F8"/>
<path d="M13.61 21.1419C15.61 21.9619 13.43 20.6019 12.73 20.7419C12.95 21.0019 13.37 20.8819 13.61 21.1419Z" fill="#F8F8F8"/>
<path d="M13.25 20.2617C13.61 20.6217 14.89 21.2817 13.87 20.3817C14.51 20.2617 13.87 20.0617 13.39 19.7417C12.51 18.4017 13.53 19.8617 13.25 20.2617Z" fill="#F8F8F8"/>
<path d="M11.9701 22.0418C10.9101 21.1618 12.2901 22.4618 11.8501 22.4418C10.7501 21.6418 11.2101 22.2218 11.8501 22.8418C12.5101 23.8418 13.0501 22.2418 11.9701 22.0418Z" fill="#F8F8F8"/>
<path d="M16.2503 23.3219C16.1303 21.9619 16.4903 23.5419 16.2503 23.3219V23.3219Z" fill="#F8F8F8"/>
<path d="M18.29 16.3218C18.29 16.5618 18.43 16.1218 18.29 16.3218V16.3218Z" fill="#F8F8F8"/>
<path d="M18.3701 23.2619C18.5301 24.1819 18.5701 21.7019 18.3701 23.2619V23.2619Z" fill="#F8F8F8"/>
<path d="M18.6504 23.7018V23.9018C19.0704 22.8818 18.7304 22.3218 18.6504 23.7018Z" fill="#F8F8F8"/>
<path d="M18.4502 18.3018C18.1702 19.7018 17.9102 19.1218 18.2902 18.0818C18.1902 16.7418 17.3902 18.9018 17.7502 19.5218C18.3302 20.4618 18.9502 17.2018 18.4502 18.3018Z" fill="#F8F8F8"/>
<path d="M20.4702 30.2618C20.6902 29.4218 20.7302 30.9618 20.4702 30.2618V30.2618Z" fill="#F8F8F8"/>
<path d="M19.0503 25.1018C19.0503 25.6218 19.2703 24.3418 19.0503 25.1018V25.1018Z" fill="#F8F8F8"/>
<path d="M19.9504 28.7617L20.0904 28.9817C20.3704 28.0017 19.3704 27.4017 19.9504 28.7617Z" fill="#F8F8F8"/>
<path d="M16.8304 27.7218C16.5704 27.2618 17.3704 28.1618 16.8304 27.7218V27.7218Z" fill="#F8F8F8"/>
<path d="M19.29 26.0219C19.29 25.1819 19.45 26.6019 19.29 26.0219V26.0219Z" fill="#F8F8F8"/>
<path d="M17.2304 20.3819C17.1304 19.8419 17.5304 21.0419 17.2304 20.3819V20.3819Z" fill="#F8F8F8"/>
<path d="M17.55 21.2218C17.03 19.9418 18.03 21.9018 17.55 21.2218V21.2218Z" fill="#F8F8F8"/>
<path d="M17.4303 23.5218C17.1703 21.5218 16.5903 24.4218 17.4303 24.9018C17.6903 25.5818 17.9303 25.3018 18.0303 24.5218C17.3903 24.5218 18.1903 23.2818 17.4303 23.5218Z" fill="#F8F8F8"/>
</g>
</svg>
