<svg width="56" height="56" viewBox="0 0 56 56" fill="none" xmlns="http://www.w3.org/2000/svg">
<path d="M27.9995 3.5C14.4698 3.5 3.49951 14.7547 3.49951 28.6234C3.49951 39.725 10.5214 49.1312 20.2558 52.4562C20.3923 52.4859 20.5317 52.5006 20.6714 52.5C21.5792 52.5 21.9292 51.8328 21.9292 51.2531C21.9292 50.6516 21.9073 49.0766 21.8964 46.9766C21.086 47.1665 20.2569 47.2656 19.4245 47.2719C14.7104 47.2719 13.6386 43.6078 13.6386 43.6078C12.5229 40.7094 10.9151 39.9328 10.9151 39.9328C8.78232 38.4344 10.9042 38.3906 11.0683 38.3906H11.0792C13.5401 38.6094 14.8308 40.9937 14.8308 40.9937C16.0558 43.1375 17.6964 43.7391 19.162 43.7391C20.1311 43.7197 21.0852 43.4961 21.962 43.0828C22.1808 41.4641 22.8151 40.3594 23.5151 39.725C18.0792 39.0906 12.3589 36.9359 12.3589 27.3109C12.3589 24.5656 13.3104 22.3234 14.8745 20.5734C14.6229 19.9391 13.7808 17.3797 15.1151 13.9234C15.2941 13.8806 15.4781 13.8622 15.662 13.8687C16.5479 13.8687 18.5495 14.2078 21.8526 16.5047C25.8662 15.3817 30.1109 15.3817 34.1245 16.5047C37.4276 14.2078 39.4292 13.8687 40.3151 13.8687C40.4991 13.8622 40.683 13.8806 40.862 13.9234C42.1964 17.3797 41.3542 19.9391 41.1026 20.5734C42.6667 22.3344 43.6183 24.5766 43.6183 27.3109C43.6183 36.9578 37.887 39.0797 32.4292 39.7031C33.3042 40.4797 34.0917 42.0109 34.0917 44.3516C34.0917 47.7094 34.0589 50.4219 34.0589 51.2422C34.0589 51.8328 34.3979 52.5 35.3058 52.5C35.4527 52.5006 35.5993 52.486 35.7433 52.4562C45.4886 49.1312 52.4995 39.7141 52.4995 28.6234C52.4995 14.7547 41.5292 3.5 27.9995 3.5Z" fill="#050505"/>
</svg>
