<svg width="49" height="49" viewBox="0 0 49 49" fill="none" xmlns="http://www.w3.org/2000/svg">
<g opacity="0.8">
<path d="M35.6679 29.5725C36.8929 28.9444 38.5929 28.4007 38.5929 28.4007C38.5929 28.4007 33.7554 29.0569 28.9429 29.3569C23.0554 29.7225 16.7304 29.7975 13.5554 29.4788C6.04287 28.7288 17.6804 26.6569 17.6804 26.6569C17.6804 26.6569 13.1679 26.4319 7.60537 28.4382C1.04287 30.8194 23.8554 31.9069 35.6679 29.5725ZM24.9929 26.5632C22.6179 22.56 14.6054 19.0444 24.9929 12.8944C37.9504 5.22566 31.3054 0.238159 31.3054 0.238159C33.9929 8.16003 21.8554 10.56 17.4679 15.4819C14.4804 18.8475 18.9304 22.4569 24.9929 26.5632ZM39.3179 10.0444C39.3304 10.0444 17.4179 14.1507 27.8804 23.1882C30.9679 25.8507 27.0679 28.2507 27.0679 28.2507C27.0679 28.2507 34.9054 25.2132 31.3054 21.4163C27.9429 17.8725 25.3679 16.11 39.3179 10.0444ZM38.5554 35.4038C38.4871 35.4931 38.403 35.5751 38.3054 35.6475C54.3429 32.4882 48.4429 24.5007 40.7804 26.5257C40.3665 26.6397 40.0089 26.8458 39.7554 27.1163C40.2028 26.9948 40.6627 26.9008 41.1304 26.835C45.0054 26.2257 50.5679 30.7257 38.5554 35.4038ZM44.4504 41.2444C44.4504 41.2444 46.2629 42.36 42.4629 43.2319C35.2254 44.8725 12.3629 45.3694 6.01287 43.2975C3.72537 42.5569 8.01287 41.5163 9.36287 41.3007C10.7629 41.0757 11.5754 41.1132 11.5754 41.1132C9.03787 39.7725 -4.83713 43.7475 4.52537 44.8819C30.0554 47.9944 51.0754 43.485 44.4504 41.2444ZM16.5054 37.3632C6.66787 39.4257 22.4929 43.6819 35.0179 39.66C33.7963 39.3041 32.6171 38.8713 31.4929 38.3663C25.9054 39.1632 23.3179 39.2194 18.2429 38.7882C14.0554 38.4319 16.5054 37.3632 16.5054 37.3632ZM38.9804 46.4757C29.1429 47.8632 17.0054 47.7038 9.81787 46.8132C9.81787 46.8038 11.2929 47.7225 18.8679 48.0882C30.3929 48.6413 48.0929 47.7788 48.5054 43.6913C48.5054 43.6913 47.7054 45.2382 38.9804 46.4757ZM33.5304 33.3319C26.1304 34.4007 21.8429 34.3725 16.4304 33.9507C12.2429 33.6225 14.9804 32.1038 14.9804 32.1038C4.13037 34.8038 21.0054 37.86 36.1679 34.5319C35.1879 34.2724 34.29 33.8639 33.5304 33.3319Z" fill="#F8F8F8"/>
</g>
</svg>
