<svg width="49" height="49" viewBox="0 0 49 49" fill="none" xmlns="http://www.w3.org/2000/svg">
<g opacity="0.8" clip-path="url(#clip0_244_84)">
<path d="M27.5532 11.9644C26.296 8.90742 26.4739 5.47018 28.2857 2.70243L29.642 0.761841C27.1354 5.46216 29.5216 11.2337 33.363 14.2589C34.0366 14.7871 34.7632 15.2486 35.5254 15.6286C35.9266 15.8287 36.3396 16.0054 36.7587 16.1605C37.0856 16.2807 37.4582 16.4077 37.7974 16.4934C42.09 17.5749 45.5886 16.8281 47.6704 13.7166C47.6066 13.8121 47.525 13.9634 47.4205 14.1565C46.4928 15.8761 43.7766 20.9092 35.899 19.3294C35.7504 19.3005 35.6062 19.2517 35.4624 19.203C35.4196 19.1885 35.3767 19.174 35.3339 19.1601C35.3031 19.1506 35.2729 19.1405 35.2425 19.1303C35.2151 19.1211 35.1877 19.1119 35.1603 19.1033C35.1449 19.0979 35.1296 19.0925 35.1144 19.0872C34.9974 19.0462 34.882 19.0057 34.7664 18.9611C31.5956 17.7544 28.879 15.2089 27.5532 11.9644Z" fill="#F8F8F8"/>
<path d="M17.1905 6.69357C14.1171 11.2845 14.2839 17.4301 16.6814 22.2855C17.0834 23.0995 17.5353 23.8889 18.0407 24.6409C18.0951 24.7219 18.1502 24.8047 18.2062 24.8887C18.6233 25.5149 19.0839 26.2063 19.6228 26.6915C19.8444 26.9449 20.0759 27.1917 20.3124 27.4345C20.357 27.4819 20.4024 27.5277 20.448 27.5739L20.4941 27.6207C20.7238 27.8519 20.9571 28.0793 21.1987 28.3003C21.2037 28.3043 21.2085 28.3087 21.2131 28.3133C21.2177 28.3179 21.2223 28.3223 21.2273 28.3261L21.2301 28.3287L21.2341 28.3327C21.5011 28.5757 21.7767 28.8095 22.0569 29.0395C22.0927 29.0677 22.1283 29.0969 22.1639 29.1261C22.1905 29.1477 22.2169 29.1693 22.2437 29.1907C22.5243 29.4143 22.8107 29.6339 23.1043 29.8433L23.1157 29.8521L23.1293 29.8627C23.2239 29.9305 23.3197 29.9951 23.4159 30.0597L23.5221 30.1313C23.5457 30.1475 23.5691 30.1639 23.5923 30.1803C23.6305 30.2075 23.6687 30.2343 23.7081 30.2593C23.9179 30.3989 24.1301 30.5345 24.3461 30.6651C24.3657 30.6775 24.3851 30.6889 24.4043 30.7003C24.4151 30.7065 24.4257 30.7129 24.4363 30.7193C24.6225 30.8305 24.8111 30.9403 25.0003 31.0461C25.0459 31.0731 25.0923 31.0975 25.1387 31.1219L25.2007 31.1547L25.2787 31.1973C25.3835 31.2543 25.4887 31.3119 25.5953 31.3667C25.6151 31.3769 25.6357 31.3861 25.6549 31.3951C25.9257 31.5333 26.1989 31.6665 26.4779 31.7931C26.5163 31.8107 26.5557 31.8271 26.5949 31.8433L26.6595 31.8707C26.8823 31.9689 27.1077 32.0645 27.3343 32.1549C27.4099 32.1845 27.4863 32.2133 27.5625 32.2419L27.6231 32.2647C27.8285 32.3435 28.0345 32.4159 28.2423 32.4883L28.3471 32.5233C28.4055 32.5431 28.4635 32.5627 28.5223 32.5813C28.5999 32.6063 28.6771 32.6331 28.7543 32.6599C28.9721 32.7353 29.1907 32.8109 29.4181 32.8501C45.2867 35.5789 48.9501 22.8969 48.9501 22.8969C45.6477 27.8341 39.2523 30.1895 32.4277 28.3509C32.1247 28.2681 31.8259 28.1777 31.5291 28.0807C31.4479 28.0553 31.3681 28.0279 31.2877 28.0003L31.2589 27.9903C31.0479 27.9193 30.8381 27.8443 30.6303 27.7655L30.6237 27.7629C30.5307 27.7277 30.4375 27.6923 30.3465 27.6557C30.1187 27.5653 29.8933 27.4709 29.6699 27.3727C29.6547 27.3659 29.6395 27.3593 29.6243 27.3529C29.6163 27.3493 29.6083 27.3459 29.6001 27.3425C29.5623 27.3263 29.5245 27.3103 29.4875 27.2925C29.2075 27.1659 28.9317 27.0329 28.6597 26.8933C28.5475 26.8363 28.4367 26.7769 28.3265 26.7175L28.2447 26.6737L28.0051 26.5457C27.8283 26.4463 27.6527 26.3429 27.4797 26.2383C27.4623 26.2279 27.4447 26.2177 27.4269 26.2075C27.4025 26.1935 27.3781 26.1795 27.3539 26.1645C27.1393 26.0341 26.9277 25.8997 26.7179 25.7615C26.6813 25.7373 26.6457 25.7121 26.6099 25.6867C26.5821 25.6671 26.5543 25.6475 26.5261 25.6283C26.3879 25.5353 26.2499 25.4409 26.1141 25.3453C25.8215 25.1361 25.5371 24.9163 25.2565 24.6941L25.1859 24.6367C25.1447 24.6033 25.1039 24.5701 25.0635 24.5365C22.0763 22.0881 19.7084 18.7427 18.5826 14.949C17.4028 11.0145 17.6572 6.59789 19.7013 3.01379L17.1905 6.69357Z" fill="#F8F8F8"/>
<path d="M4.04826 12.3672C-0.20151 18.7077 0.32753 26.9567 3.57398 33.6935C3.63586 33.8231 3.70014 33.9509 3.76424 34.0783L3.81174 34.1729C3.8316 34.2121 3.851 34.2517 3.8704 34.2913C3.90078 34.3535 3.93134 34.4159 3.9636 34.4765C3.98502 34.5191 4.00834 34.5611 4.0313 34.6023L4.05822 34.6509C4.10448 34.7405 4.15164 34.8265 4.1993 34.9135L4.2275 34.9649C4.32834 35.1497 4.43166 35.3333 4.53746 35.5167L4.5727 35.5775C4.61926 35.6579 4.66606 35.7387 4.71422 35.8191C4.83124 36.0155 4.95136 36.2093 5.07396 36.4031L5.11008 36.4619C5.14874 36.5249 5.18718 36.5875 5.22708 36.6487C5.39636 36.9109 5.5694 37.1719 5.748 37.4291L5.74978 37.4317C5.75374 37.4377 5.75804 37.4441 5.76292 37.4497C5.77798 37.4719 5.79394 37.4937 5.8099 37.5157C5.82362 37.5343 5.83748 37.5533 5.85068 37.5725C6.00504 37.7933 6.16438 38.0117 6.32558 38.2275C6.38472 38.3063 6.44444 38.3851 6.5042 38.4641C6.64798 38.6513 6.79424 38.8375 6.943 39.0235C6.99838 39.0933 7.0544 39.1631 7.11042 39.2315C7.3102 39.4757 7.51372 39.7187 7.7216 39.9563L7.73402 39.9693L7.7438 39.9801C7.7486 39.9853 7.75314 39.9901 7.75766 39.9963C7.96056 40.2263 8.16844 40.4513 8.37884 40.6761C8.44418 40.7459 8.51078 40.8157 8.578 40.8841C8.74106 41.0547 8.90662 41.2227 9.07406 41.3893L9.1346 41.4497C9.18204 41.4971 9.22934 41.5443 9.27696 41.5897C9.5004 41.8079 9.72632 42.0225 9.95662 42.2317C9.96038 42.2355 9.96346 42.2385 9.9672 42.2409C9.98912 42.2611 10.0114 42.2805 10.0336 42.2999C10.0509 42.3149 10.0686 42.3303 10.0855 42.3455C10.2884 42.5277 10.495 42.7085 10.7029 42.8869C10.7505 42.9269 10.7985 42.9665 10.8465 43.0061L10.9587 43.0989C11.1286 43.2397 11.3004 43.3793 11.4734 43.5163C11.5646 43.5883 11.6566 43.6611 11.7485 43.7333C11.9396 43.8793 12.1319 44.0227 12.3261 44.1635L12.3571 44.1867C12.4169 44.2315 12.4761 44.2757 12.5364 44.3187L12.5943 44.3613C12.7696 44.4867 12.9489 44.6075 13.1279 44.7281L13.1551 44.7463C13.1865 44.7679 13.2177 44.7897 13.249 44.8117C13.2983 44.8463 13.348 44.8811 13.3978 44.9143C13.6866 45.1043 13.9798 45.2915 14.276 45.4725C14.3203 45.4989 14.365 45.5249 14.4098 45.5509L14.5188 45.6147C14.7366 45.7451 14.9557 45.8731 15.1779 45.9983C15.2629 46.0459 15.3494 46.0915 15.4357 46.1369L15.5426 46.1935L15.6601 46.2577C15.7775 46.3219 15.8949 46.3861 16.0144 46.4481C16.0304 46.4561 16.0467 46.4641 16.063 46.4723C16.0833 46.4823 16.1036 46.4923 16.1233 46.5023L16.1913 46.5361C16.233 46.5567 16.2747 46.5775 16.3162 46.5993C16.5633 46.7219 16.8123 46.8421 17.0638 46.9585L17.1578 47.0021L17.2219 47.0321C17.51 47.1625 17.8007 47.2879 18.0938 47.4081C18.1642 47.4377 18.2351 47.4663 18.3061 47.4947C18.5774 47.6033 18.8526 47.7105 19.1289 47.8113L19.1462 47.8175C19.175 47.8281 19.2032 47.8379 19.2322 47.8487C19.5353 47.9585 19.8416 48.0605 20.1496 48.1601C20.1849 48.1707 20.2203 48.1817 20.2558 48.1929C20.2942 48.2051 20.3327 48.2171 20.3712 48.2285C20.4513 48.2537 20.5312 48.2799 20.6111 48.3063C20.8441 48.3831 21.0776 48.4601 21.3184 48.5063C41.8714 52.3969 47.8414 35.6857 47.8414 35.6857C42.8274 42.4665 33.927 44.2549 25.4944 42.2637C25.2422 42.2045 24.9958 42.1277 24.7498 42.0509C24.6842 42.0303 24.6188 42.0099 24.5532 41.9899C24.4742 41.9653 24.3964 41.9407 24.3186 41.9161C24.0142 41.8193 23.7124 41.7173 23.4124 41.6099L23.288 41.5635C23.019 41.4653 22.7532 41.3619 22.4888 41.2559L22.2648 41.1641C21.9746 41.0453 21.6866 40.9213 21.402 40.7921C21.3712 40.7785 21.3412 40.7645 21.311 40.7505C21.284 40.7379 21.257 40.7255 21.2296 40.7133C20.985 40.5983 20.7429 40.4819 20.5021 40.3617L20.4193 40.3207C20.3771 40.2999 20.3346 40.2789 20.2917 40.2571C20.1483 40.1845 20.006 40.1081 19.8642 40.0321L19.7288 39.9597C19.6838 39.9351 19.6385 39.9109 19.5932 39.8869C19.5128 39.8439 19.4322 39.8011 19.353 39.7553C19.1251 39.6289 18.9013 39.4971 18.6785 39.3627L18.5911 39.3125C18.5443 39.2857 18.4973 39.2589 18.4506 39.2309C18.1543 39.0499 17.8617 38.8625 17.572 38.6725C17.5206 38.6385 17.4699 38.6029 17.4193 38.5673L17.335 38.5085C17.1249 38.3677 16.9158 38.2243 16.7099 38.0771C16.6749 38.0525 16.6406 38.0271 16.6065 38.0017C16.5739 37.9773 16.5413 37.9533 16.5085 37.9299C16.3096 37.7839 16.1128 37.6363 15.9175 37.4865C15.8288 37.4181 15.7416 37.3493 15.6554 37.2811C15.4765 37.1387 15.2985 36.9953 15.1221 36.8481C15.0425 36.7823 14.9628 36.7163 14.8844 36.6505C14.6603 36.4593 14.4387 36.2667 14.2203 36.0691C14.2076 36.0577 14.1944 36.0463 14.181 36.0349L14.1474 36.0057C13.9109 35.7899 13.6788 35.5689 13.4491 35.3467C13.3825 35.2809 13.3178 35.2163 13.2524 35.1503C13.0825 34.9823 12.9151 34.8131 12.7508 34.6399L12.6847 34.5717C12.6408 34.5265 12.5972 34.4813 12.5541 34.4357C12.345 34.2135 12.1396 33.9887 11.9385 33.7601C11.9336 33.7543 11.9284 33.7487 11.9233 33.7433C11.9197 33.7393 11.9161 33.7355 11.9126 33.7315L11.9081 33.7265C11.6952 33.4849 11.4873 33.2381 11.2838 32.9887L11.1201 32.7871C10.9682 32.5971 10.8176 32.4047 10.6707 32.2107C10.6157 32.1409 10.5606 32.0695 10.506 31.9975C10.3291 31.7593 10.1563 31.5217 9.98698 31.2803C5.30522 24.6515 3.6233 15.5085 7.36524 8L4.04826 12.3672Z" fill="#F8F8F8"/>
</g>
<defs>
<clipPath id="clip0_244_84">
<rect width="48" height="48" fill="white" transform="translate(0.950195 0.761841)"/>
</clipPath>
</defs>
</svg>
