<svg width="49" height="49" viewBox="0 0 49 49" fill="none" xmlns="http://www.w3.org/2000/svg">
<g opacity="0.8">
<path d="M0.950195 3.23816V45.2382H48.9502V3.23816H0.950195ZM27.0716 35.9944C27.0716 40.0819 24.3288 41.9475 20.3323 41.9475C16.7216 41.9475 14.6323 40.3163 13.5609 38.3382L17.2359 36.3975C17.9431 37.4944 18.5859 38.4225 20.1395 38.4225C21.6181 38.4225 22.5609 37.9163 22.5609 35.9382V22.5225H27.0716V35.9944ZM37.7431 41.9475C33.5538 41.9475 30.8431 40.2038 29.5252 37.9163L33.2002 36.06C34.1645 37.4382 35.4288 38.46 37.6466 38.46C39.5109 38.46 40.7109 37.6444 40.7109 36.51C40.7109 35.16 39.4895 34.6819 37.4216 33.885L36.2966 33.4632C33.0395 32.2538 30.8859 30.7257 30.8859 27.51C30.8859 24.5475 33.4681 22.2975 37.4859 22.2975C40.3573 22.2975 42.4145 23.1694 43.8931 25.4569L40.3788 27.4257C39.6073 26.2163 38.7716 25.7382 37.4752 25.7382C36.1573 25.7382 35.3216 26.4694 35.3216 27.4257C35.3216 28.6069 36.1573 29.085 38.0966 29.8257L39.2216 30.2475C43.0573 31.6819 45.2109 33.1538 45.2109 36.4538C45.2109 39.9975 42.0181 41.9475 37.7431 41.9475Z" fill="#F8F8F8"/>
</g>
</svg>
