<svg width="49" height="49" viewBox="0 0 49 49" fill="none" xmlns="http://www.w3.org/2000/svg">
<g opacity="0.8" clip-path="url(#clip0_244_71)">
<path d="M28.9357 4.85571C28.3257 4.86571 27.7357 4.97571 27.2297 5.35171C26.7177 5.68771 26.1377 5.99171 25.7837 6.50771C24.9763 8.03447 24.4929 9.71148 24.3637 11.4337C22.3457 10.6077 20.2037 10.0017 18.0097 10.0817C16.68 10.3312 15.3844 10.7367 14.1497 11.2897C11.6297 12.6037 10.0337 15.1757 9.08968 17.7817C8.52074 18.9229 8.11413 20.138 7.88168 21.3917C7.66768 22.5277 7.23768 23.6217 7.16768 24.7817C7.16368 25.5697 7.22568 26.3577 7.21368 27.1457C6.36968 27.6717 5.36168 27.6357 4.41768 27.8017C3.73768 27.7857 3.07768 27.4417 2.38968 27.6617C1.66968 28.0057 0.889681 28.1997 0.167681 28.5357C-0.00631884 29.5557 -0.164319 30.9857 1.08168 31.3837C3.20968 31.3797 5.34568 31.3877 7.47168 31.4257C7.85568 33.3857 8.23168 35.4057 9.26768 37.1457C10.4937 39.1197 11.6937 41.1957 13.5617 42.6457C15.3377 43.8317 17.6017 43.8797 19.6397 43.5277C20.4137 43.4417 20.9517 42.8277 21.6477 42.5437C22.0717 42.2917 22.7017 42.2317 22.8617 41.6877C24.2577 39.4277 23.1877 36.6257 21.9217 34.5677C21.1157 33.1537 19.3717 32.8617 17.8857 32.9277C17.0137 33.0577 16.4617 33.8077 15.7597 34.2617C14.9837 34.7317 14.2377 35.7317 14.8237 36.6337C15.3257 37.5797 15.9457 38.8477 17.2097 38.7817C18.0077 38.6897 19.0737 38.5097 19.4217 37.6757C19.5757 36.6657 18.3837 36.1797 17.5817 35.9997C17.6197 36.4937 17.6717 36.9877 17.7217 37.4857C17.3077 37.1997 16.8917 36.9257 16.4717 36.6497C16.7277 35.3157 18.2117 35.3497 19.2317 34.9417C20.2717 36.5617 21.3677 38.6457 20.5217 40.5717C19.5437 41.7957 17.7817 41.6417 16.4137 41.3217C14.6257 41.0477 13.4397 39.4557 12.6517 37.9577C11.4637 35.8877 10.0057 33.6677 10.2597 31.1837C11.0937 31.1417 11.9277 31.1437 12.7597 31.1917C13.5557 31.3797 14.2637 32.0677 15.1237 31.7317C16.9677 31.2277 18.8857 31.5317 20.7677 31.5117C22.2477 31.4077 23.7357 31.3877 25.2177 31.4497C25.7537 31.5957 26.0397 32.2497 26.6577 32.2097C27.3737 32.4497 27.7737 31.7177 28.3117 31.4097C29.5043 31.3515 30.6992 31.3529 31.8917 31.4137C32.4577 32.4017 33.3037 33.4577 34.5117 33.5977C35.9797 33.6517 37.2237 32.6117 38.0177 31.4697C39.0577 31.7037 40.1817 32.0337 41.1897 31.5117C43.3797 30.5837 45.7897 30.5837 48.0497 29.9417V29.2977C46.2357 28.0777 43.9957 28.4157 41.9637 27.9077C40.4137 27.6417 38.8397 27.8837 37.2837 27.8637C36.5937 27.3917 35.9177 26.8457 35.0457 26.7897C34.7777 26.9077 34.5057 27.0157 34.2377 27.1257C34.9497 27.2057 35.6937 27.3657 36.2257 27.8857C35.5537 27.8457 34.8577 27.8777 34.2217 27.6337C33.3657 27.9477 32.5517 28.4337 32.4177 29.4217C32.0537 28.9117 32.5837 28.4357 32.7957 27.9817C32.3157 26.9677 31.1437 26.4457 30.8077 25.3517C30.8592 25.272 30.9296 25.2063 31.0125 25.1602C31.0955 25.1141 31.1885 25.0892 31.2834 25.0877C31.3783 25.0861 31.4721 25.1079 31.5566 25.1511C31.641 25.1944 31.7135 25.2578 31.7677 25.3357C32.2357 26.0257 32.6197 26.7657 32.9137 27.5437C33.3477 27.5697 33.7837 27.5977 34.2217 27.6337V27.1337C34.0037 27.2237 33.7897 27.3137 33.5777 27.4177C33.1997 26.5937 32.8757 25.7437 32.6077 24.8757C33.1237 24.9997 33.6197 25.1857 34.1397 25.2897C36.4917 24.9217 39.0177 24.4657 40.8597 22.8257C41.2477 22.4257 41.9437 22.0857 41.8277 21.4297C41.7137 20.4817 41.0237 19.7477 40.6817 18.8757C41.2157 18.6737 41.7517 18.4757 42.2677 18.2357C44.1037 16.4377 45.0217 13.8657 45.2217 11.3397C45.0377 9.99371 44.6577 8.51371 43.6157 7.56771C41.7157 6.60771 39.4757 6.91971 37.5457 7.61771C36.6717 7.96571 36.0257 8.67171 35.2997 9.24371C34.7077 9.11171 34.3457 8.42371 33.9557 7.97771C33.2057 6.69771 32.1757 5.50771 30.7637 4.95771C30.1777 4.93571 29.5477 4.84571 28.9357 4.85571ZM29.7257 5.88771C30.9057 5.92771 31.9437 6.89971 32.6117 7.83171C33.0557 8.57171 33.6597 9.19571 34.3817 9.66371C35.1569 12.1708 34.9591 14.8779 33.8277 17.2457C33.4937 17.9957 32.7897 18.4557 32.0997 18.8357C30.2797 19.3697 28.3517 18.5697 27.0577 17.2697L27.0817 17.0817C26.1657 16.6537 26.0077 15.5477 25.8497 14.6617C25.0697 12.8757 25.2637 10.8297 25.8377 9.01571C26.2617 7.59571 27.3497 6.23571 28.8897 6.01971C29.1574 5.92299 29.4412 5.87819 29.7257 5.88771ZM40.9097 7.93771C42.1417 7.94171 43.4897 8.49771 43.7897 9.78971C44.7497 12.0137 43.6857 14.4777 42.4137 16.3357C41.6777 17.0257 40.8297 17.5897 40.1397 18.3357C39.2897 16.6477 37.4217 15.8977 35.6937 15.4617C36.0137 13.8457 35.7737 12.2057 35.7377 10.5817C36.6737 8.91171 38.6177 8.27371 40.3897 7.97371C40.5577 7.95171 40.7337 7.93771 40.9097 7.93771ZM42.4597 11.1777C42.1143 11.2819 41.7655 11.3739 41.4137 11.4537C41.1637 11.8157 40.9097 12.1797 40.6517 12.5437C40.9337 13.2877 41.9237 13.9797 42.6197 13.3037C42.7455 12.958 42.7962 12.5894 42.7686 12.2225C42.7411 11.8556 42.6357 11.5008 42.4597 11.1777ZM18.4837 11.2697C20.2837 11.2477 22.0697 11.8137 23.6857 12.5757C24.4457 12.8817 24.3917 13.7757 24.5617 14.4417C24.6917 14.9617 24.8417 15.4737 24.9957 15.9897C25.2477 16.7557 25.5797 17.5497 26.2357 18.0637C27.3277 18.8997 28.4517 19.7977 29.8237 20.1137C31.0486 20.3813 32.3295 20.1641 33.3977 19.5077C34.2977 18.6997 34.7337 17.4937 35.6717 16.7157C36.5517 17.1457 37.5257 17.3517 38.3737 17.8517C39.2537 18.4077 39.6797 19.4057 40.1977 20.2657C40.3777 20.6537 40.5257 21.0497 40.6817 21.4417C39.1097 23.0057 36.8097 23.4177 34.7337 23.9017C33.8737 24.1577 33.0757 23.7097 32.3617 23.2937C31.9937 23.4957 31.6277 23.7117 31.2577 23.9117C29.9506 24.636 28.4556 24.9496 26.9677 24.8117C26.6006 24.7668 26.2339 24.7188 25.8677 24.6677C26.0357 23.9157 26.2317 23.1697 26.3857 22.4137C26.2017 22.4297 25.8317 22.4537 25.6457 22.4657C25.0257 23.4177 24.9957 24.5697 25.1197 25.6597C25.1497 26.0737 25.1757 26.4857 25.1937 26.8997C24.7227 26.3859 24.4357 25.7303 24.3777 25.0357C24.4097 24.2537 24.5077 23.4797 24.5777 22.6997C23.7577 22.3457 23.4357 23.2837 23.2837 23.8917C23.2837 24.2277 23.3077 24.5617 23.3317 24.8957C21.9037 25.2217 20.3717 25.3877 18.9557 24.9177C17.9277 24.5817 16.8057 24.5537 15.8417 24.0277C15.8097 23.6277 15.7757 23.2317 15.7337 22.8357C15.4517 22.7837 15.1697 22.7337 14.8897 22.6757C14.5117 23.6897 13.9857 24.7177 14.0417 25.8257C14.2317 26.5557 14.8437 27.0937 15.2997 27.6757C14.6297 27.8717 13.7177 27.7197 13.2677 28.3437C12.9977 29.5457 14.0937 30.2397 14.8117 30.9817C13.7797 30.6017 12.6337 30.0557 12.2797 28.9217C12.7997 28.3177 13.3877 27.7817 14.0417 27.3277C13.0997 25.9317 12.6897 23.8417 13.9097 22.4857C13.6737 22.1997 13.3957 21.7057 12.9557 21.9497C12.6117 22.2737 12.3197 22.6497 11.9877 22.9897C10.5877 24.0557 10.0357 25.7617 9.18968 27.2297C8.77968 27.2157 8.36968 27.2037 7.95968 27.2037L7.93968 26.6957C7.84998 26.0234 7.83456 25.3434 7.89368 24.6677C8.19968 23.4757 8.72968 22.3517 9.02968 21.1577L9.13168 20.7697L9.30368 20.1837C10.2077 17.7217 11.3197 15.1957 13.3277 13.4257C14.6117 12.1537 16.4537 11.8057 18.1197 11.2857C18.2397 11.2797 18.3637 11.2717 18.4837 11.2697ZM28.7237 12.2617C27.9637 12.2377 27.2477 12.5517 27.3737 13.4537C27.2637 14.2417 28.0197 14.5977 28.5577 14.9737C29.7617 14.9677 30.3017 13.6017 29.9717 12.6177C29.5943 12.3928 29.1649 12.2701 28.7257 12.2617H28.7237ZM12.5957 23.8417C12.4189 24.381 12.3676 24.9536 12.4456 25.5157C12.5236 26.0779 12.7288 26.6149 13.0457 27.0857C12.2637 27.4917 11.3937 27.5117 10.5337 27.5077C10.3537 26.2117 11.1697 25.1037 11.7757 24.0357C12.0497 23.9757 12.3257 23.9137 12.5957 23.8417ZM15.0217 24.9297C15.7277 25.1317 16.5677 25.1097 17.1237 25.6457C17.0397 25.9937 16.9577 26.3417 16.8977 26.6957C16.4382 26.9713 16.0009 27.2822 15.5897 27.6257C15.3172 27.2383 15.1264 26.7995 15.0287 26.3361C14.9311 25.8726 14.9287 25.3941 15.0217 24.9297ZM29.3577 25.5777C29.7797 25.6237 29.8817 26.1357 30.1577 26.3917C30.6297 27.0037 31.3037 27.4157 31.8617 27.9417C30.5217 27.9777 28.9117 28.1457 28.1017 26.8177C27.5597 26.9657 27.0157 27.1837 26.7337 27.7077L25.9337 27.2737C25.9237 26.7737 25.9417 26.2697 25.9837 25.7697H26.8977C27.7217 25.7757 28.5457 25.7137 29.3577 25.5777ZM18.7457 25.8717C18.7857 26.5437 19.1057 27.3317 18.6057 27.9117C18.1137 27.8697 17.6217 27.8297 17.1397 27.7437C17.7917 27.3537 18.2737 26.7337 18.4877 26.0037L18.7457 25.8717ZM23.7657 26.1057C24.3957 26.5857 24.6557 27.3737 24.9477 28.0777C23.0717 28.1497 21.1917 28.1237 19.3197 27.9997C19.4477 27.3797 19.6597 26.7797 19.8237 26.1677C21.1337 26.1277 22.4497 26.1677 23.7637 26.1077L23.7657 26.1057ZM25.4177 27.1757C25.7217 27.5437 26.0537 27.8857 26.4137 28.1997C26.8937 27.6457 27.9637 26.7457 28.4097 27.8137C27.6837 28.1617 26.7837 28.4237 26.5417 29.2977L26.5177 29.4037C26.6697 30.1657 26.8737 30.9157 27.1317 31.6497C25.5857 30.6397 26.3497 28.5537 25.4177 27.1757ZM3.78768 27.7617C3.74768 28.3517 2.94368 28.6017 3.04168 29.2157C3.22368 29.7957 3.46168 30.3557 3.74968 30.8917C2.76768 30.8457 1.77168 30.8977 0.799681 30.7157C0.707681 30.2037 0.477681 29.4457 1.01968 29.1057C1.53768 28.7857 1.95968 28.3277 2.24968 27.7897C2.75968 27.8697 3.28168 27.8617 3.78968 27.7617H3.78768ZM5.10768 28.0677C4.69168 28.7917 4.18568 29.6877 4.83168 30.4497L4.47968 30.6057C4.17511 30.1922 3.93193 29.7368 3.75768 29.2537C3.96168 28.8857 4.14768 28.5057 4.31768 28.1217C4.58168 28.1097 4.84368 28.0917 5.10768 28.0677ZM6.14368 28.2397L6.20968 28.3997L6.42968 28.3057C6.34968 28.7597 6.01968 29.0877 5.73768 29.4297C6.20368 29.4577 6.32968 30.9577 5.65568 30.5437C5.56925 30.3947 5.48458 30.2447 5.40168 30.0937C5.44968 29.6397 5.37768 29.1337 5.76368 28.7977L5.87368 28.6637L6.04568 28.4737L6.14368 28.2397ZM14.0297 28.3877C14.7237 28.5517 15.8197 28.1457 16.2497 28.7197C16.8697 28.8197 17.4557 29.1137 18.0897 29.1297C20.3337 28.4717 22.7217 28.8217 25.0297 28.8217C25.0417 29.0217 25.0697 29.4177 25.0857 29.6177C23.3477 29.6837 21.6117 29.6897 19.8777 29.6457C18.9737 29.6397 18.1157 29.0317 17.2017 29.3057C16.8017 29.3417 16.3537 29.7637 16.0017 29.3917C15.4417 29.3857 14.8777 29.3677 14.3157 29.3557C14.2257 29.0157 14.1157 28.6757 14.0297 28.3877ZM9.17368 28.4217C9.92368 28.5217 10.8717 28.2297 11.4357 28.8717L11.1957 29.4117C9.71568 29.3397 8.23568 29.3257 6.75368 29.2817C7.05568 28.2917 8.35368 28.4737 9.17368 28.4217ZM40.9137 28.4537C41.9177 28.4097 42.8737 28.7857 43.8697 28.8837C43.8757 29.2977 43.9997 29.7397 43.7997 30.1297C42.5837 30.3617 41.4297 30.8957 40.1797 30.9257C40.2017 30.5897 40.2197 30.2537 40.2257 29.9137L40.7997 29.5397L40.9137 28.4537ZM37.6937 28.4817C37.8977 28.4817 38.1037 28.4897 38.3077 28.5017C38.7657 28.5897 39.0997 28.9557 39.4837 29.1957C38.3797 29.7457 37.1217 29.6097 35.9397 29.4497C35.0277 29.3257 34.0797 29.4937 33.1857 29.2197L33.4357 28.7697C34.8517 28.6497 36.2657 28.4677 37.6937 28.4817ZM30.1717 28.6757C30.6057 28.6797 31.0397 28.6877 31.4757 28.6877C31.5197 29.1277 31.3337 29.3397 30.9157 29.3257C29.8817 29.3537 28.8477 29.3497 27.8157 29.2897C27.7157 28.6777 28.4957 28.7917 28.8657 28.6997C29.2997 28.6737 29.7357 28.6717 30.1717 28.6757ZM29.1397 29.9697C30.2237 29.9697 31.3057 30.0717 32.3697 30.2737C33.8577 30.0797 35.3577 30.2637 36.8397 30.0037C37.4517 30.0517 38.7397 29.7737 38.5917 30.7457C37.8937 30.8297 37.2437 30.3917 36.5377 30.4657C35.1497 30.5517 33.7517 30.6797 32.3777 30.3757C30.8037 30.7057 29.1957 30.5517 27.6037 30.6497C27.5915 30.4463 27.5775 30.2429 27.5617 30.0397C28.0977 29.9797 28.6537 29.9917 29.1397 29.9697ZM8.30368 29.9937C9.50368 29.9937 10.7097 30.2157 11.9097 30.2577L12.1597 30.5437C10.5437 30.5397 8.91568 30.6677 7.30768 30.4997C7.23715 30.361 7.16781 30.2216 7.09968 30.0817C7.49968 30.0177 7.90368 29.9937 8.30368 29.9937ZM15.1557 30.2317C15.8357 30.2377 16.5217 30.2477 17.2057 30.2357C19.8797 30.2677 22.5497 30.3057 25.2177 30.4857C25.1506 30.5967 25.0852 30.7087 25.0217 30.8217C22.4137 30.9077 19.8097 30.8617 17.2017 30.8517L15.5577 30.7937C15.4237 30.6057 15.2897 30.4137 15.1557 30.2317ZM32.4397 31.0117C33.2997 31.3957 34.1537 31.7977 35.0497 32.0977C35.5677 31.8897 36.2797 30.7557 36.7017 31.5777C36.0457 32.1877 35.1197 32.8057 34.1817 32.5977C33.4617 32.2577 32.9997 31.5577 32.4397 31.0117ZM8.47168 31.1517L9.13168 31.2517C9.85768 32.9337 9.89168 34.8717 10.8777 36.4497C11.4457 37.3837 11.9137 38.3697 12.4637 39.3137C13.0377 40.2977 13.9877 40.9617 14.8777 41.6377C16.7877 43.0417 19.9177 42.8297 21.2717 40.7617C22.1257 38.9177 21.0637 36.9657 20.3237 35.2817C19.0557 33.2897 15.7437 34.8057 15.8397 36.9777C16.5677 37.4137 17.3737 38.3037 18.2837 37.7457C18.266 37.3907 18.2573 37.0352 18.2577 36.6797C18.4737 36.9197 18.6377 37.2017 18.8497 37.4457C18.3397 38.1037 17.5097 38.0737 16.7597 37.9697C16.4577 37.6337 16.1457 37.3077 15.8397 36.9777C15.4637 34.8117 18.2257 32.9897 20.0597 34.0857C21.3697 34.9257 21.7357 36.5417 22.2577 37.9057C22.8597 39.5477 21.9697 41.4917 20.4097 42.2237C19.2077 42.9997 17.7177 42.6917 16.3737 42.6917C14.5397 42.6037 13.3437 41.1057 12.1397 39.9177C10.9797 38.4937 10.2237 36.8037 9.31968 35.2157C8.85534 33.9061 8.57009 32.5397 8.47168 31.1537V31.1517Z" fill="#F8F8F8"/>
</g>
<defs>
<clipPath id="clip0_244_71">
<rect width="48" height="48" fill="white" transform="translate(0.0498047 0.285767)"/>
</clipPath>
</defs>
</svg>
