<svg width="16" height="16" viewBox="0 0 16 16" fill="none" xmlns="http://www.w3.org/2000/svg">
<path d="M8.19517 3.52869C8.32019 3.40371 8.48973 3.3335 8.6665 3.3335C8.84328 3.3335 9.01282 3.40371 9.13784 3.52869L13.1378 7.52869C13.2628 7.65371 13.333 7.82324 13.333 8.00002C13.333 8.1768 13.2628 8.34634 13.1378 8.47135L9.13784 12.4714C9.0121 12.5928 8.8437 12.66 8.6689 12.6585C8.49411 12.657 8.3269 12.5868 8.20329 12.4632C8.07969 12.3396 8.00957 12.1724 8.00805 11.9976C8.00654 11.8228 8.07373 11.6544 8.19517 11.5287L11.0572 8.66669H3.33317C3.15636 8.66669 2.98679 8.59645 2.86177 8.47143C2.73674 8.3464 2.6665 8.17683 2.6665 8.00002C2.6665 7.82321 2.73674 7.65364 2.86177 7.52862C2.98679 7.40359 3.15636 7.33335 3.33317 7.33335H11.0572L8.19517 4.47135C8.07019 4.34634 7.99998 4.1768 7.99998 4.00002C7.99998 3.82324 8.07019 3.65371 8.19517 3.52869Z" fill="#F8F8F8"/>
</svg>
