<svg width="49" height="49" viewBox="0 0 49 49" fill="none" xmlns="http://www.w3.org/2000/svg">
<g opacity="0.8">
<path d="M30.3877 3.6488C28.6449 3.36192 26.094 3.22973 24.3624 3.23817C22.7394 3.24005 21.1194 3.3774 19.5193 3.6488C15.2311 4.3988 14.4502 5.96442 14.4502 8.85567V12.2382H24.9502V13.7382H11.0396C7.14333 13.7382 3.98115 18.3947 3.95021 24.1557C3.95021 24.1829 3.95021 24.21 3.95021 24.2382C3.94886 25.2454 4.04715 26.2503 4.24365 27.2382C5.11458 31.5769 7.82771 34.7382 11.0396 34.7382H12.9502V29.6757C12.9502 26.7413 14.904 24.0554 18.1065 23.4788L19.0318 23.3635H30.3877C30.8647 23.3654 31.3396 23.3023 31.7996 23.176C32.8511 22.8952 33.7799 22.2737 34.4405 21.4087C35.101 20.5437 35.4562 19.484 35.4502 18.3957V8.85567C35.4502 6.14442 33.1365 4.09973 30.3877 3.6488ZM19.2249 10.1288C18.8466 10.1301 18.4765 10.019 18.1615 9.80969C17.8464 9.60035 17.6006 9.30217 17.4553 8.95295C17.3099 8.60374 17.2716 8.21922 17.345 7.84817C17.4185 7.47711 17.6005 7.13624 17.868 6.86877C18.1355 6.6013 18.4763 6.41929 18.8474 6.34581C19.2184 6.27233 19.603 6.3107 19.9522 6.45606C20.3014 6.60141 20.5996 6.84719 20.8089 7.16224C21.0183 7.47729 21.1293 7.84742 21.128 8.22567C21.1281 8.47563 21.079 8.72316 20.9834 8.95411C20.8878 9.18507 20.7476 9.39491 20.5709 9.57166C20.3941 9.74841 20.1843 9.88858 19.9533 9.98418C19.7224 10.0798 19.4749 10.1289 19.2249 10.1288Z" fill="#F8F8F8"/>
<path d="M45.5077 20.5819C44.5046 16.5872 41.9068 13.7382 38.8608 13.7382H37.2005V18.1866C37.2005 21.8963 34.763 24.5822 31.7874 25.0425C31.4868 25.0891 31.1831 25.1126 30.8789 25.1128H19.5202C19.0384 25.1124 18.5585 25.1738 18.0924 25.2957C16.0008 25.845 14.4502 27.585 14.4502 29.8416V39.3825C14.4502 42.1013 17.1821 43.695 19.8624 44.4741C23.0696 45.4069 26.5636 45.5757 30.4018 44.4741C32.9508 43.7457 35.4502 42.2728 35.4502 39.3825V36.2382H24.9502V34.7382H38.8608C41.6208 34.7382 44.0124 32.401 45.1843 28.9903C45.6989 27.4591 45.9577 25.8535 45.9502 24.2382C45.9528 23.0059 45.8042 21.778 45.5077 20.5819ZM30.623 38.1132C31.0013 38.1119 31.3714 38.2229 31.6864 38.4323C32.0015 38.6416 32.2473 38.9398 32.3926 39.289C32.538 39.6382 32.5763 40.0227 32.5029 40.3938C32.4294 40.7648 32.2474 41.1057 31.9799 41.3732C31.7124 41.6407 31.3716 41.8227 31.0005 41.8961C30.6295 41.9696 30.2449 41.9313 29.8957 41.7859C29.5465 41.6405 29.2483 41.3948 29.039 41.0797C28.8296 40.7647 28.7186 40.3945 28.7199 40.0163C28.7198 39.7663 28.7689 39.5188 28.8645 39.2878C28.9601 39.0569 29.1003 38.847 29.277 38.6703C29.4538 38.4936 29.6636 38.3534 29.8946 38.2578C30.1255 38.1622 30.3731 38.113 30.623 38.1132Z" fill="#F8F8F8"/>
</g>
</svg>
