<svg width="49" height="49" viewBox="0 0 49 49" fill="none" xmlns="http://www.w3.org/2000/svg">
<g opacity="0.8" clip-path="url(#clip0_244_96)">
<path d="M1.71014 0.761884C1.62958 0.763158 1.55034 0.782578 1.47832 0.818699C1.4063 0.85482 1.34335 0.906712 1.29415 0.970518C1.24495 1.03432 1.21077 1.1084 1.19415 1.18724C1.17753 1.26608 1.17889 1.34765 1.19814 1.42588L6.98614 24.8579C6.99074 24.885 6.99743 24.9118 7.00614 24.9379L12.7861 48.3539C12.8087 48.4455 12.8551 48.5295 12.9206 48.5975C12.986 48.6654 13.0683 48.7149 13.159 48.7408C13.2497 48.7668 13.3457 48.7684 13.4372 48.7454C13.5287 48.7224 13.6125 48.6756 13.6801 48.6099L48.5541 15.0619C48.6216 14.9965 48.6708 14.9146 48.6966 14.8243C48.7225 14.734 48.7241 14.6385 48.7014 14.5473C48.6787 14.4562 48.6325 14.3726 48.5673 14.305C48.5022 14.2373 48.4204 14.188 48.3301 14.1619L36.7621 10.8279C36.687 10.785 36.6026 10.761 36.5161 10.7579L13.7101 4.19188C13.6237 4.13845 13.5238 4.1107 13.4221 4.11188L1.86214 0.781884C1.8127 0.767968 1.7615 0.761233 1.71014 0.761884ZM2.45814 2.06988L12.3701 4.92188L4.93014 12.0899L2.45814 2.06988ZM14.1701 5.44188L23.8981 8.24188L16.5981 15.2719L14.1701 5.44188ZM13.1261 5.68188L15.5601 15.5339L5.80614 12.7339L13.1261 5.68188ZM25.6861 8.75788L35.4421 11.5659L28.1181 18.6259L25.6861 8.75788ZM24.6461 9.01788L27.0621 18.8179L17.3561 16.0339L24.6461 9.01788ZM37.2461 12.0859L47.1401 14.9339L39.7101 22.0819L37.2461 12.0859ZM36.1981 12.3259L38.6281 22.1779L28.8761 19.3819L36.1981 12.3259ZM5.33414 13.7179L15.2621 16.5659L7.81014 23.7379L5.33414 13.7179ZM17.0441 17.0619L26.7981 19.8619L19.4781 26.9159L17.0441 17.0619ZM16.0081 17.3359L18.4801 27.3699L8.55414 24.5059L16.0081 17.3359ZM28.5561 20.4059L38.4861 23.2559L31.0261 30.4279L28.5561 20.4059ZM27.5161 20.6599L29.9861 30.6839L20.0701 27.8239L27.5161 20.6599ZM8.25614 25.5359L18.0021 28.3479L10.6901 35.3939L8.25614 25.5359ZM19.9641 28.9099L29.6901 31.7159L22.3941 38.7359L19.9641 28.9099ZM18.8841 28.9899L21.3121 38.8439L11.5621 36.0439L18.8841 28.9899ZM11.0921 37.0299L21.1661 39.9139L13.6021 47.1899L11.0921 37.0299Z" fill="#F8F8F8"/>
</g>
<defs>
<clipPath id="clip0_244_96">
<rect width="48" height="48" fill="white" transform="translate(0.950195 0.761841)"/>
</clipPath>
</defs>
</svg>
