<svg width="49" height="49" viewBox="0 0 49 49" fill="none" xmlns="http://www.w3.org/2000/svg">
<g opacity="0.8" clip-path="url(#clip0_244_64)">
<path d="M0.506487 17.0241C0.506487 17.0241 -0.662619 16.1722 0.740307 15.0348L4.00892 12.0805C4.00892 12.0805 4.94422 11.0859 5.93308 11.9525L36.096 35.0358V46.1046C36.096 46.1046 36.0814 47.8428 33.8746 47.6508L0.506487 17.0241Z" fill="#F8F8F8"/>
<path d="M8.28098 24.1592L0.506429 31.3036C0.506429 31.3036 -0.292461 31.9044 0.506429 32.9778L4.11604 36.2964C4.11604 36.2964 4.97338 37.227 6.23992 36.1684L14.4821 29.8512L8.28098 24.1592Z" fill="#F8F8F8"/>
<path d="M21.9297 24.2179L36.1879 13.2129L36.0953 2.20301C36.0953 2.20301 35.4863 -0.199879 33.4551 1.0508L14.4814 18.5062L21.9297 24.2179Z" fill="#F8F8F8"/>
<path d="M33.8739 47.6658C34.7019 48.5224 35.7055 48.2418 35.7055 48.2418L46.8173 42.7074C48.2399 41.7274 48.0401 40.5112 48.0401 40.5112V7.46183C48.0401 6.00927 46.5689 5.50703 46.5689 5.50703L36.9379 0.81452C34.8335 -0.50017 33.4551 1.05086 33.4551 1.05086C33.4551 1.05086 35.2281 -0.239201 36.0953 2.20307V45.903C36.0953 46.2034 36.0319 46.4988 35.9053 46.7646C35.6519 47.2816 35.1015 47.7642 33.7813 47.5624L33.8739 47.6658Z" fill="#F8F8F8"/>
</g>
<defs>
<clipPath id="clip0_244_64">
<rect width="48" height="48" fill="white" transform="translate(0.0498047 0.285767)"/>
</clipPath>
</defs>
</svg>
