<svg width="65" height="64" viewBox="0 0 65 64" fill="none" xmlns="http://www.w3.org/2000/svg">
<g opacity="0.45">
<path d="M42.6902 34.1333V29.8667H46.9569V34.1333H42.6902Z" fill="#F8F8F8"/>
<path fill-rule="evenodd" clip-rule="evenodd" d="M32.0234 1.79688L59.7567 17.9747V46.0254L32.0234 62.2029L4.29004 46.0254V17.9747L32.0234 1.79688ZM27.038 17.0667C19.1875 17.0667 12.8234 23.4308 12.8234 31.2813V32.7187C12.8234 40.5692 19.1875 46.9333 27.038 46.9333C29.2448 46.9333 31.4212 46.4196 33.395 45.4328L35.1108 44.5747L33.2026 40.7586L31.4869 41.6164C30.1056 42.3071 28.5824 42.6667 27.038 42.6667C21.5439 42.6667 17.09 38.2128 17.09 32.7187V31.2813C17.09 25.7872 21.5439 21.3333 27.038 21.3333C28.5824 21.3333 30.1056 21.6929 31.4869 22.3836L33.2026 23.2414L35.1108 19.4252L33.395 18.5673C31.4212 17.5805 29.2448 17.0667 27.038 17.0667ZM38.4234 21.3333V25.6H34.1567V29.8667H38.4234V34.1333H34.1567V38.4H38.4234V42.6667H42.69V38.4H46.9567V42.6667H51.2234V38.4H55.49V34.1333H51.2234V29.8667H55.49V25.6H51.2234V21.3333H46.9567V25.6H42.69V21.3333H38.4234Z" fill="#F8F8F8"/>
</g>
</svg>
