<svg width="48" height="48" viewBox="0 0 48 48" fill="white" xmlns="http://www.w3.org/2000/svg">
<g clip-path="url(#clip0_59_107)">
<path d="M40.634 8.9842C37.5746 7.60294 34.294 6.5853 30.8638 6.00244C30.8014 5.9912 30.739 6.0193 30.7068 6.07554C30.2848 6.81394 29.8174 7.77724 29.4902 8.53438C25.8008 7.9909 22.1304 7.9909 18.5166 8.53438C18.1893 7.7604 17.705 6.81394 17.2811 6.07554C17.249 6.02118 17.1866 5.99308 17.1241 6.00244C13.6958 6.58344 10.4151 7.60108 7.35386 8.9842C7.32736 8.99544 7.30466 9.0142 7.28958 9.03856C1.06678 18.1862 -0.6379 27.109 0.19836 35.9212C0.202144 35.9644 0.22674 36.0056 0.260796 36.0318C4.36642 38.9986 8.34342 40.7996 12.2466 41.9934C12.309 42.0122 12.3752 41.9898 12.415 41.939C13.3383 40.6984 14.1613 39.3904 14.867 38.0146C14.9086 37.934 14.8688 37.8384 14.7837 37.8066C13.4783 37.3194 12.2352 36.7252 11.0395 36.0506C10.9449 35.9962 10.9373 35.8632 11.0243 35.7994C11.2759 35.6138 11.5276 35.4208 11.7679 35.226C11.8114 35.1904 11.872 35.1828 11.9231 35.2052C19.7786 38.7344 28.283 38.7344 36.046 35.2052C36.097 35.181 36.1576 35.1884 36.203 35.224C36.4432 35.419 36.695 35.6138 36.9484 35.7994C37.0354 35.8632 37.0298 35.9962 36.9352 36.0506C35.7394 36.7384 34.4964 37.3194 33.189 37.8048C33.104 37.8366 33.066 37.934 33.1076 38.0146C33.8286 39.3884 34.6516 40.6966 35.5578 41.9372C35.5956 41.9898 35.6638 42.0122 35.7262 41.9934C39.6482 40.7996 43.6252 38.9986 47.7308 36.0318C47.7668 36.0056 47.7896 35.9662 47.7934 35.9232C48.7942 25.7352 46.117 16.8856 40.6964 9.04042C40.6832 9.0142 40.6606 8.99544 40.634 8.9842ZM16.04 30.5556C13.675 30.5556 11.7263 28.419 11.7263 25.7952C11.7263 23.1714 13.6372 21.035 16.04 21.035C18.4617 21.035 20.3916 23.1902 20.3538 25.7952C20.3538 28.419 18.4428 30.5556 16.04 30.5556ZM31.9894 30.5556C29.6246 30.5556 27.6758 28.419 27.6758 25.7952C27.6758 23.1714 29.5866 21.035 31.9894 21.035C34.4112 21.035 36.341 23.1902 36.3032 25.7952C36.3032 28.419 34.4112 30.5556 31.9894 30.5556Z" fill="white"/>
</g>
<defs>
<clipPath id="clip0_59_107">
<rect width="48" height="48" fill="white"/>
</clipPath>
</defs>
</svg>
