<svg width="64" height="64" viewBox="0 0 64 64" fill="none" xmlns="http://www.w3.org/2000/svg">
<g opacity="0.45" clip-path="url(#clip0_38_67)">
<path d="M17.4699 42.5555C16.9969 42.757 16.3349 43.0295 15.8014 43.1975C14.6714 43.5535 13.7649 43.6975 12.8359 43.8385C13.9529 47.42 18.3289 50.937 23.4319 50.605C28.2424 50.605 31.5729 48.2335 33.3449 44.794C28.3199 44.723 20.9999 46.815 17.4699 42.5555ZM63.3874 43.146C61.6304 43.3555 60.3754 43.002 57.4964 43.926C50.5269 46.7965 43.6294 44.362 41.4334 43.886C40.7124 43.811 40.3819 42.756 38.9024 44.5015L38.1809 45.352C41.5869 48.7035 46.2559 50.627 51.0909 50.627C57.6009 50.627 62.0024 47.483 63.4649 43.2125L63.3874 43.146Z" fill="#F8F8F8"/>
<path d="M63.757 37.553C59.929 34.8945 59.1635 36.8165 57.244 38.8915C57.4215 39.3455 57.5175 39.8615 57.5175 40.4615C57.5175 43.2635 55.2655 45.077 51.2555 45.077C47.904 45.077 44.4435 43.429 41.862 41.0115L38.902 44.5015C42.91 44.6815 46.967 45.7165 51.025 45.5565C55.466 45.3805 61.3325 43.9745 63.3875 43.1465L63.4655 43.2125C63.8213 42.1677 64.0019 41.0712 64 39.9675C64 39.094 63.915 38.2925 63.757 37.553ZM34.844 37.611C32.675 35.9565 30.596 36.52 28.6025 38.8575V39.2575C28.6025 42.425 26.043 44.9925 22.886 44.9925C21.9172 44.9926 20.9642 44.7463 20.1169 44.2765C19.2696 43.8068 18.5557 43.1292 18.0425 42.3075C18.0425 42.3075 17.793 42.4175 17.47 42.555C18.964 44.438 20.8 45.4115 24.4435 45.5565C27.411 45.674 30.3785 45.154 33.346 44.794C34.3375 42.871 34.844 40.615 34.844 38.2495V37.611Z" fill="#F8F8F8"/>
<path d="M34.844 30.819C32.818 29.0365 30.7555 28.677 28.6025 31.397V38.8575C30.69 38.3715 32.7725 37.8775 34.844 37.611V30.819ZM58.9995 31.361C55.8835 29.997 46.5535 31.3615 44.904 31.9865C45.5855 32.3882 46.2944 32.7414 47.0255 33.0435L51.915 35.1865C54.5445 36.2825 56.5425 37.1 57.244 38.8915C59.2625 38.5985 61.003 38.1965 62.1615 37.93L63.7565 37.553C63.145 34.6975 61.412 32.7805 58.9995 31.361Z" fill="#F8F8F8"/>
<path d="M39.7826 23.94C39.9466 27.902 42.2406 30.407 44.9161 31.9915C46.9581 32.3945 49.0001 32.744 51.0421 32.744C53.8926 32.744 56.7401 32.065 59.0021 31.362C58.2765 30.9396 57.5238 30.5655 56.7491 30.242L51.9151 28.209C49.5271 27.236 47.2826 26.369 46.4976 24.6065C41.6806 22.1605 44.9116 20.617 39.7836 23.9405L39.7826 23.94ZM34.8441 24.42C33.0121 23.156 30.9451 23.5345 28.6021 25.5645L28.6026 31.401C30.6826 31.1925 32.7636 30.9155 34.8441 30.819V24.42Z" fill="#F8F8F8"/>
<path d="M41.934 17.5385C40.559 19.191 39.774 21.2345 39.774 23.4835C39.774 23.6375 39.7776 23.7895 39.7836 23.9395C42.0106 23.9175 44.2511 24.1645 46.4976 24.607C46.2969 24.1491 46.1962 23.6538 46.2021 23.154C46.2021 20.5165 48.3991 18.923 51.8056 18.923C54.8811 18.923 57.3535 20.077 59.6056 21.9995L61.9971 19.051C55.0086 16.891 48.7621 15.5325 41.9351 17.538L41.934 17.5385ZM34.8441 18.9505C32.2661 16.6865 30.2871 18.3565 28.6021 21.5155V25.5645C30.6831 25.242 32.7631 24.771 34.8441 24.4195V18.9505Z" fill="#F8F8F8"/>
<path d="M28.6021 13.374V21.516C30.6831 20.8135 32.7631 19.7745 34.8441 18.95V13.374H28.6021ZM51.8046 13.374C47.5751 13.374 44.0541 14.9915 41.9346 17.537C44.9511 17.5485 47.9876 18.158 51.0246 18.5205C55.3691 19.0395 59.6985 19.0505 61.996 19.0505L62.9021 17.934C60.1001 15.1315 56.0346 13.374 51.8046 13.374Z" fill="#F8F8F8"/>
<path d="M0 13.374V40.875H10.4115C13.1405 40.875 15.2305 40.4425 17.1715 39.4635C17.168 39.396 17.168 39.327 17.168 39.2585C17.168 36.091 19.728 33.5245 22.886 33.5245C22.9795 33.5245 23.072 33.5265 23.1645 33.5315C24.155 31.515 24.5545 29.5155 24.5545 26.8885C24.5545 24.178 24.0445 21.819 23.0225 19.777C21.962 17.7735 20.4295 16.202 18.3875 15.062C16.3435 13.9235 13.869 13.374 10.922 13.374H0ZM6.6 19.2665H10.5685C12.887 19.2665 14.6545 19.935 15.8335 21.31C17.012 22.6845 17.601 24.57 17.601 27.006C17.601 29.481 16.9715 31.407 15.754 32.821C14.5365 34.2745 12.729 34.9815 10.332 34.9815H6.6005L6.6 19.2665ZM22.9025 35.6465C22.4219 35.6367 21.9443 35.7229 21.4974 35.9001C21.0506 36.0772 20.6436 36.3417 20.3003 36.6781C19.9569 37.0145 19.6842 37.416 19.498 37.8592C19.3118 38.3023 19.2159 38.7781 19.2159 39.2588C19.2159 39.7394 19.3118 40.2153 19.498 40.6584C19.6842 41.1015 19.9569 41.503 20.3003 41.8394C20.6436 42.1758 21.0506 42.4404 21.4974 42.6175C21.9443 42.7946 22.4219 42.8808 22.9025 42.871C23.8502 42.8553 24.7537 42.4677 25.4183 41.792C26.0829 41.1162 26.4554 40.2063 26.4554 39.2585C26.4554 38.3107 26.0829 37.4008 25.4183 36.7251C24.7537 36.0493 23.8502 35.6623 22.9025 35.6465Z" fill="#F8F8F8"/>
</g>
<defs>
<clipPath id="clip0_38_67">
<rect width="64" height="64" fill="white"/>
</clipPath>
</defs>
</svg>
