<svg width="64" height="64" viewBox="0 0 64 64" fill="none" xmlns="http://www.w3.org/2000/svg">
<g opacity="0.45">
<path d="M42 22C44.6522 22 47.1957 20.9464 49.0711 19.0711C50.9464 17.1957 52 14.6522 52 12C52 9.34784 50.9464 6.8043 49.0711 4.92893C47.1957 3.05357 44.6522 2 42 2H22C19.3478 2 16.8043 3.05357 14.9289 4.92893C13.0536 6.8043 12 9.34784 12 12C12 14.6522 13.0536 17.1957 14.9289 19.0711C16.8043 20.9464 19.3478 22 22 22C19.3478 22 16.8043 23.0536 14.9289 24.9289C13.0536 26.8043 12 29.3478 12 32C12 34.6522 13.0536 37.1957 14.9289 39.0711C16.8043 40.9464 19.3478 42 22 42C20.0222 42 18.0888 42.5865 16.4443 43.6853C14.7998 44.7841 13.5181 46.3459 12.7612 48.1732C12.0043 50.0004 11.8063 52.0111 12.1922 53.9509C12.578 55.8907 13.5304 57.6725 14.9289 59.0711C16.3275 60.4696 18.1093 61.422 20.0491 61.8079C21.9889 62.1937 23.9996 61.9957 25.8268 61.2388C27.6541 60.4819 29.2159 59.2002 30.3147 57.5557C31.4135 55.9112 32 53.9778 32 52V22H42Z" fill="#F8F8F8"/>
<path d="M42 42C47.5228 42 52 37.5228 52 32C52 26.4772 47.5228 22 42 22C36.4772 22 32 26.4772 32 32C32 37.5228 36.4772 42 42 42Z" fill="#F8F8F8"/>
</g>
</svg>
