<svg width="64" height="64" viewBox="0 0 64 64" fill="none" xmlns="http://www.w3.org/2000/svg">
<g opacity="0.45" clip-path="url(#clip0_37_49)">
<path d="M19.126 55.084C16.688 53.156 14.084 51.324 12.314 48.73C8.57398 44.168 5.68798 38.886 3.71998 33.324C2.53198 29.72 2.12598 25.844 0.593977 22.366C-1.01002 19.856 0.863977 17.096 3.62598 16.294C4.85598 16.054 7.02198 14.898 4.40798 15.732C2.06398 17.44 1.84598 14.17 4.24198 13.962C5.87798 13.744 6.48198 12.4 5.91998 11.202C4.16998 10.056 10.19 8.796 7.15998 7.076C4.00398 3.67 11.576 3.014 9.71198 6.878C9.26398 9.858 15.004 6.336 13.67 9.774C15.024 11.42 18.732 10.15 18.638 12.462C20.618 12.598 21.294 14.254 23.138 14.378C25.066 15.254 28.534 15.93 29.19 18.086C27.284 19.596 22.878 14.982 22.67 19.148C23.242 25.304 23.098 31.648 25.348 37.512C26.42 41.064 29.004 43.866 31.338 46.626C33.568 49.344 36.588 51.24 39.672 52.856C42.38 54.126 45.298 54.97 48.244 55.502C49.432 54.586 51.546 51.19 53.41 52.626C53.494 54.23 49.712 55.99 53.232 55.814C55.294 55.188 56.732 57.408 58.44 55.408C60.002 57.262 64.96 54.22 63.846 58.022C62.336 58.99 60.128 58.408 58.616 59.74C56.126 58.5 54.136 60.854 51.376 60.562C48.314 61.104 45.188 61.332 42.084 61.332C36.99 60.926 31.782 60.76 26.928 58.988C24.198 58.186 21.532 56.636 19.126 55.084ZM23.428 56.948C26.094 58.094 28.71 59.312 31.636 59.688C36.272 60.324 41.064 61.324 45.72 60.418C43.616 59.46 41.428 60.794 39.334 59.73C36.814 60.272 34.116 59.594 31.552 59.262C28.646 57.97 25.5 57.074 22.77 55.386C19.374 54.146 24.53 56.98 25.458 57.22C27.584 58.428 23.114 56.594 22.49 56.094C20.708 55.094 20.48 55.302 22.312 56.312C22.676 56.53 23.044 56.76 23.428 56.948ZM18.354 53.354C20.938 54.312 18.344 51.542 17.156 51.698C16.636 50.792 15.156 50.208 16.198 49.73C14.312 50.376 14.23 47.25 13.344 47.688C11.354 47.062 12.574 44.844 10.208 43.48C9.98998 42.042 7.85398 40.792 7.16598 38.616C6.86398 37.512 4.75998 34.314 6.05198 37.282C7.15598 40.146 9.10398 42.594 10.718 45.042C11.978 47.364 13.458 49.802 15.75 51.25C16.52 51.99 17.26 53.126 18.354 53.354ZM10.906 45.178C10.99 44.792 11.374 46.022 10.906 45.178V45.178ZM21.448 54.5C20.626 54.188 22.02 54.25 21.448 54.5V54.5ZM22.854 55.02C22.208 55.406 22.708 54.312 22.854 55.02V55.02ZM24.614 55.75C23.322 55.25 25.448 54.948 24.614 55.75V55.75ZM27.626 57.428C25.99 57.146 28.136 56.678 27.626 57.428V57.428ZM21.844 53.396C20.156 53.386 23.136 52.552 21.844 53.396V53.396ZM23.156 54.052C22.688 54.25 23.124 53.604 23.156 54.052V54.052ZM29.74 58.166C30.802 58.832 35.928 59.624 32.72 58.436C32.188 58.55 26.772 56.904 29.74 58.166ZM19.292 50.02C17.646 49.52 19.188 49.572 19.292 50.02V50.02ZM22.354 51.802C20.698 51.374 23.156 51.25 22.354 51.802V51.802ZM24.938 53.386C23.074 52.948 26.084 52.958 24.938 53.386V53.386ZM18.042 48.656C19.282 49.614 23.052 48.782 19.948 48.094C18.532 47.334 15.344 46.824 17.51 48.542L18.042 48.656ZM26.678 53.938C24.512 53.428 27.198 53.052 26.678 53.938V53.938ZM24.052 51.844C27.094 52.708 21.5 49.928 23.302 51.532L23.708 51.71L24.052 51.844ZM29.322 54.886C26.718 54.49 32.196 54.918 29.322 54.886V54.886ZM16.938 46.99C16.23 47.042 16.824 46.458 16.938 46.99V46.99ZM34.188 57.614C33.25 58.344 34.26 56.646 34.188 57.614V57.614ZM21.844 50C20.948 49.98 21.666 49.49 21.844 50V50ZM17.208 46.656C14.948 45.926 18.854 46.562 17.208 46.656V46.656ZM11.708 43.104C9.91598 41.688 11.51 42.312 11.708 43.104V43.104ZM26.136 52.27C25.834 51.916 25.99 52.342 26.136 52.27V52.27ZM35.104 57.77C34.624 57.968 35.084 57.25 35.104 57.77V57.77ZM25.344 51.448C23.928 51.24 25.5 50.76 25.344 51.448V51.448ZM18.656 47.198C16.688 46.376 19.874 47.072 18.656 47.198V47.198ZM29.968 54.23C28.092 53.854 31.874 53.47 29.968 54.23V54.23ZM24.084 50.24C26.292 50.522 21.458 48.74 23.594 50.084L24.084 50.24ZM31.75 54.958C33.812 53.718 33.136 57.844 35.25 55.302C37.334 53.782 33.448 57.188 36.02 55.572C37.874 54.332 40.624 56.166 42.354 56.76C43.604 56.698 44.822 57.844 46.094 57.146C48.562 56.48 41.282 56.166 43.188 54.99C40.938 55.646 39.272 54.208 38.168 52.76C35.636 52.176 32.72 50.884 31.46 48.646C30.94 47.812 32.2 48.772 31.012 47.396C29.492 46.042 28.73 44.5 27.71 42.854C26.492 42.208 26.346 40.292 26.22 42.792C26.23 41.208 24.74 40.146 24.386 40.594C24.376 39.074 25.97 39.834 24.854 38.708C24.614 37.124 23.822 35.478 23.584 33.698C23.22 32.844 23.532 31.01 22.324 32.948C21.886 35 22.178 30.428 22.866 31.938C23.762 30.396 22.544 30.574 22.49 30.792C23.074 29.49 22.866 27.646 22.334 28.344C22.646 26.968 22.834 23.272 21.866 23.928C22.45 22.49 22.97 17.334 20.45 19.302C19.418 19.312 17.648 19.678 16.814 20.094C19.44 21.542 16.544 20.614 15.48 20.386C15.344 21.72 14.282 21.146 12.96 21.156C15.074 21.416 11.928 23.312 10.71 22.584C9.13798 23.334 12.074 25.21 10.742 25.792C10.908 26.668 8.33598 25.48 8.53398 27.5C7.00198 26.854 8.32598 29.906 9.08598 28.876C11.69 29.574 10.92 31.178 10.982 32.71C10.566 33.596 8.89798 30.616 10.618 30.752C9.26398 28.554 9.11798 29.96 7.98198 30.982C7.72198 31.054 10.868 32.44 8.89798 33.128C10.628 33.388 10.68 34.91 11.024 35.868C12.066 36.962 11.858 34.67 13.108 35.982C12.316 34.816 8.92998 32.7 11.65 33.378C11.64 32.212 11.16 31.264 11.994 31.294C12.828 29.794 11.13 34.992 12.994 33.086C13.514 32.856 13.64 31.586 14.578 33.2C15.922 34.534 15.058 35.492 13.162 34.272C13.496 35.428 15.704 35.844 15.288 37.648C15.726 39.242 16.34 38.648 16.882 38.564C17.298 40.106 17.538 38.97 17.56 38.23C19.488 38.646 19.028 39.782 19.632 40.584C20.954 41.178 17.736 36.522 20.018 39.178C22.404 41.344 20.914 42.24 18.758 41.896C20.122 41.792 20.56 43.74 22.258 43.666C23.81 44.406 24.862 47.238 22.186 46.062C21.258 45.228 17.978 44.186 20.666 45.78C23.146 46.926 25.104 47.614 27.5 49.05C29.198 50.268 29.948 51.676 30.594 51.946C29.156 52.634 26.26 51.394 28.406 51.018C27.072 50.778 25.562 50.102 26.844 51.768C27.938 52.684 30.708 52.58 31.208 52.684C30.78 53.612 30.062 53.684 31.228 53.756C29.926 54.454 31.644 54.558 31.76 54.954L31.75 54.958ZM29.104 47.468C28.312 46.634 28.104 45.092 28.958 46.436C29.396 46.614 30.364 48.968 29.104 47.468ZM37.74 52.948C37.75 53.324 38.23 52.928 37.74 52.948V52.948ZM27.854 45.438C27.822 44.198 28.136 46.406 27.854 45.438V45.438ZM26.99 44.292C26 42.376 28.25 44.834 26.99 44.292V44.292ZM16.594 37.104C16.876 38.104 17.178 36.948 16.594 37.104V37.104ZM24.876 41.594C25.23 40.25 25.292 42.73 24.876 41.594V41.594ZM19.02 37.532C18.614 36.792 19.884 38.23 19.02 37.532V37.532ZM24.042 39.136C23.104 37.032 24.708 37.99 24.25 39.49L24.042 39.136ZM15.386 33.364C14.97 32.676 14.272 30.646 14.5 30.03C14.698 31.03 16.636 34.364 15.448 31.406C14.136 28.926 17.02 32.208 17.324 32.834C17.46 33.448 16.512 32.668 17.146 34.104C15.98 32.458 16.458 35.01 15.386 33.364ZM12.708 31.52C12.822 29.916 13.322 32.624 12.708 31.52V31.52ZM13.916 31.938C14.488 30.72 14.884 33.626 13.916 31.938V31.938ZM11.02 29.698C10.02 28.708 9.30198 27.792 11.062 29.084C11.75 29.104 9.56198 27.012 11.228 28.418C12.988 28.74 12.092 31.304 11.02 29.7V29.698ZM12.542 29.656C12.844 30.218 13.126 29.084 12.542 29.656V29.656ZM13.48 29.958C12.604 28.312 14.542 30.646 13.48 29.958V29.958ZM11.614 28.178C8.71798 25.606 15.26 29.532 12.082 28.658L11.614 28.178ZM19.916 33C18.656 32.25 19.582 27.708 20.01 30.812C21.228 30.416 19.938 32.416 20.844 32.396C20.708 33.656 20.302 34.114 19.916 33ZM22.98 34.812C23.106 33.448 23.24 35.75 22.98 34.812V34.812ZM22.448 34.282C22.458 34.97 22.584 33.698 22.448 34.282V34.282ZM12.188 27.334C10.324 24.762 17.594 29.928 13.376 27.98C12.938 27.866 12.408 27.824 12.188 27.334ZM18.094 30.468C17.916 28.302 18.49 30.822 18.094 30.468V30.468ZM22.584 33.344C22.604 34.156 22.928 32.114 22.584 33.344V33.344ZM12.468 26.354C13.572 26.114 17.052 28.292 13.854 26.98C13.5 26.584 12.75 26.762 12.468 26.354ZM21.958 31.084C22.084 28.876 22.624 29.762 21.968 31.396L21.958 31.084ZM13.292 25.584C13.74 24.928 12.094 22.594 13.532 24.75C14.146 25.24 15.324 25.572 14.282 25.782C15.918 27.22 13.886 26.168 13.292 25.584ZM21.49 30.396C21.772 31.864 21.802 27.876 21.49 30.396V30.396ZM12.354 23.26C12.532 23.718 12.698 23.114 12.354 23.26V23.26ZM14.49 24.532C15.042 23.376 15.5 25.824 14.49 24.532V24.532ZM20.52 27.896C20.52 27.448 20.634 28.532 20.52 27.896V27.896ZM20.178 27.114C19.344 25.052 20.96 28.208 20.178 27.114V27.114ZM19.656 25.76C19.52 24.906 20.146 26.832 19.656 25.76V25.76ZM20.5 24.396C19.928 23.386 21.23 19.938 21.364 22.074C20.76 23.74 21.198 24.678 21.614 22.438C22.396 20.678 21.448 25.918 20.5 24.396ZM21.354 19.27C21.416 19.634 21.604 18.958 21.354 19.27V19.27ZM19.928 47.572C19.584 47.27 19.97 47.76 19.928 47.572V47.572ZM22.886 49.062C24.522 49.49 24.522 48.812 23.032 48.614C22.23 47.864 19.71 47.072 21.97 48.52C22.116 48.896 22.596 48.884 22.876 49.062H22.886ZM17.042 45.188C17.948 45.866 20.448 47.104 18.324 45.438C19.042 44.616 16.96 44.168 17.646 43.616C15.896 42.532 16.26 42.636 17.5 42.668C15.374 41.72 17.802 41.792 17.688 41.304C16.866 41.148 13.636 39.866 15.542 41.408C13.604 40.428 15.074 41.784 14.49 41.638C12.51 41.096 16.25 43.148 14.178 42.638C15.314 43.534 17.24 44.94 14.658 43.586C14.314 44.076 16.502 44.816 17.044 45.19L17.042 45.188ZM20.136 46.968C18.292 45.478 23.896 48.176 20.136 46.968V46.968ZM35.968 56.562C35.458 57.198 36.02 55.812 35.968 56.562V56.562ZM37.604 57.25C38.468 56.406 37.636 58.584 39.042 57.042C39.052 55.938 39 55.282 37.428 56.626C36.99 56.866 36.802 57.886 37.606 57.252L37.604 57.25ZM11.75 41.01C9.88598 39.968 11.49 39.968 11.75 41.01V41.01ZM13.49 42.156C11.188 41.188 12.844 41.084 13.49 42.156V42.156ZM23.386 48.126C24.354 48.98 27.824 48.752 24.564 48.23C24.074 47.512 21.492 47.688 23.386 48.126ZM36.98 56.52C35.542 57.072 38.47 55.27 36.98 56.52V56.52ZM40.072 58.636C39.436 58.814 40.082 58.24 40.072 58.636V58.636ZM40.072 58.084C38.478 58.188 41.718 56.334 40.072 58.084V58.084ZM7.47998 37.438C6.07398 35.438 6.60398 34.532 5.24998 32.906C4.99998 31.646 2.93798 28.812 4.18798 31.822C5.33398 33.572 5.67798 36.292 7.47998 37.438ZM39.562 57.52C38.322 56.676 42.594 55.572 39.562 57.52V57.52ZM41.876 58.428C40.918 58.158 43.396 57.136 41.876 58.428V58.428ZM11.24 38.802C10.126 38.718 11.678 38.156 11.24 38.802V38.802ZM41.386 57.812C42.854 56.864 41.052 57.01 41.126 57.896L41.386 57.812ZM21.468 45.25C20.686 45.302 21.416 44.614 21.468 45.25V45.25ZM22.698 45.958C22.094 46.084 22.302 45.166 22.698 45.958V45.958ZM43.75 58.458C45.626 57.094 42.604 58.188 43.354 58.708L43.75 58.458ZM43.032 58.104C41.406 58.676 44.564 56.822 43.032 58.104V58.104ZM46.708 60.552C45.458 60.334 47.74 59.864 46.708 60.552V60.552ZM12.188 38.334C13.564 38.646 17.698 41.73 15.26 38.552C14.01 38.176 14.76 35.124 13.478 35.666C14.332 37.094 14.186 37.708 12.394 36.802C10.134 35.708 11.124 37.354 11.56 37.802C10.966 37.938 12.364 38.322 12.188 38.334ZM5.90598 33.376C6.14598 32.356 3.62398 27.762 4.70798 31.074C5.10398 31.762 5.06198 33.084 5.90598 33.376ZM17.428 40.49C16.72 39.896 17.396 40.396 17.428 40.49V40.49ZM19.178 40.896C17.25 40.458 19.178 39.812 19.178 40.896V40.896ZM34.334 50.448C33.188 50.428 34.042 49.708 34.334 50.448V50.448ZM35.062 50.98C34.646 51.052 34.958 50.564 35.062 50.98V50.98ZM41.072 54.76C40.354 54.708 41.644 54.332 41.072 54.76V54.76ZM9.04198 34.178C7.27198 33.72 10.698 33.532 9.04198 34.178V34.178ZM33 49.27C31.948 49.54 32.98 48.198 33 49.27V49.27ZM8.38598 32.656C7.40598 32.416 9.44798 32.292 8.38598 32.656V32.656ZM11.468 34.146C11.146 34.282 11.448 33.792 11.468 34.146V34.146ZM49.042 57.188C50.406 56.918 53.522 57.886 54.022 56.824C52.366 56.792 48.282 55.658 48.094 57.094L48.458 57.156L49.042 57.188ZM12.448 34.396C11.604 34.354 12.468 33.312 12.448 34.396V34.396ZM4.34398 28.77C2.94798 28.458 3.97998 26.708 4.34398 28.77V28.77ZM6.28198 29.26C4.51198 28.656 6.30198 28.594 6.28198 29.26V29.26ZM7.38598 29.802C7.06398 29.542 7.13598 30.124 7.38598 29.802V29.802ZM14.322 34.25C13.552 34.032 14.656 33.958 14.322 34.25V34.25ZM6.64598 28.584C4.40598 28.344 6.45798 27.022 6.64598 28.584V28.584ZM2.68798 26.01C2.30198 26.28 2.63598 25.292 2.68798 26.01V26.01ZM3.26998 25.562C2.76998 25.666 3.17598 24.708 3.26998 25.562V25.562ZM6.53198 27.51C7.90798 26.968 4.02198 26.384 6.24998 27.406L6.53198 27.51ZM50.084 54.406C48.97 54.156 50.97 53.604 50.084 54.406V54.406ZM55.354 57.136C54.458 57.272 55.698 56.094 55.354 57.136V57.136ZM6.86398 25.802C5.76998 26 7.00998 24.792 6.86398 25.802V25.802ZM2.22998 22.698C1.97998 21.27 2.02198 18.77 4.39598 19.614C1.21798 20.25 6.59398 23.562 5.91598 20.948C7.24998 21.01 8.52998 20.156 7.82198 21.458C10.458 21.166 12.28 18.886 14.822 19.198C16.802 18.938 18.968 18.74 21.104 17.948C22.854 17.812 24.542 15.928 23.584 14.812C21.188 14.604 18.688 14.906 16.042 15.426C13.114 16.04 10.458 17.196 7.49998 17.696C4.61398 18.082 8.07198 18.758 7.24998 18.914C5.74998 19.434 9.04198 19.79 7.05198 20.33C5.83398 20.1 4.55198 19.674 5.07198 18.382C2.31198 18.736 -0.116023 19.892 2.07198 22.694L2.22998 22.698ZM8.88598 19.312C9.53198 16.926 12.354 21.27 9.94798 19.624C9.65598 19.416 9.18798 19.238 8.88598 19.312ZM9.00998 18.156C9.49998 18.542 9.93798 17.468 9.00998 18.156V18.156ZM10.198 18.178C10.282 17.084 12.906 18.762 10.626 18.574L10.198 18.178ZM11.812 17.52C11.99 18.146 12.406 16.832 11.812 17.52V17.52ZM12.23 17.25C13.22 16.062 17.824 16.49 14.448 17.136C13.552 16.458 12.854 17.532 12.23 17.25ZM18.24 16.322C18.084 13.082 21.22 17.478 18.24 16.322V16.322ZM19.938 16.312C20.564 14.676 22.354 15.656 20.23 15.978C20.272 16.156 20.168 16.822 19.938 16.312ZM6.18798 24.968C4.21998 23.978 8.05198 23.822 6.18798 24.968V24.968ZM7.56198 25.354C6.14598 25.062 8.21798 24.656 7.56198 25.354V25.354ZM3.50998 22.468C2.25998 22.156 4.57198 21.656 3.50998 22.468V22.468ZM58.458 56.844C57.646 57.272 58.49 55.896 58.458 56.844V56.844ZM52.876 53.032C52.158 53.126 53.032 51.938 52.876 53.032V53.032ZM59.99 57.208C61.48 57.208 64.49 56.75 61.26 56.75C60.75 56.834 58.302 56.812 59.99 57.208ZM8.76998 24.678C9.97798 24.594 10.656 23.356 8.53998 23.428C5.25798 23.084 11.426 24.542 8.12398 24.126C7.67598 24.418 8.74998 24.762 8.76998 24.678ZM9.83398 25.218C9.45798 25.624 9.70798 24.436 9.83398 25.218V25.218ZM11.084 21.864C10.366 21.686 11.616 21.218 11.084 21.864V21.864ZM7.08398 15.178C9.23998 14.448 12.178 13.626 13.188 15.532C12.156 14.292 12.772 13.074 13.75 14.886C15.126 16.73 15.812 14.052 14.916 13.438C15.936 14.708 17.094 15.302 15.604 13.51C17.23 11.562 12.344 13.77 11.228 13.75C10.696 13.99 5.70798 15.02 7.09198 15.178H7.08398ZM8.34398 12.77C9.57398 11.842 12.584 13.312 10.646 11.842C10.468 11.686 6.41598 12.956 8.34398 12.77ZM12.812 12.948C14.25 12.99 12.198 11.032 13.906 11.916C13.624 11 11.916 10.822 11.072 10.458C10.604 11.302 12.04 12.958 12.812 12.948ZM9.13598 8.896C8.25998 9.24 9.62598 8.23 9.13598 8.896V8.896ZM10.958 9.334C13.26 9.032 10.364 8.344 10.49 9.314L10.958 9.334ZM7.55198 6.666C5.92598 4.54 10.604 7.03 8.95798 4.802C7.56198 3.698 6.22798 6.052 7.55198 6.666ZM28.416 17.906C29.166 16.584 25.332 16.124 27.916 17.438C28.156 17.522 28.094 18 28.416 17.906Z" fill="#F8F8F8"/>
</g>
<defs>
<clipPath id="clip0_37_49">
<rect width="64" height="64" fill="white"/>
</clipPath>
</defs>
</svg>
