<svg width="48" height="37" viewBox="0 0 48 37" fill="white" xmlns="http://www.w3.org/2000/svg">
<path d="M48 4.91906V32.7371C48 34.5451 46.536 36.0091 44.728 36.0091H37.09V17.4651L24 27.2851L10.91 17.4651V36.0111H3.272C2.84215 36.0111 2.41651 35.9264 2.0194 35.7618C1.62229 35.5972 1.2615 35.3561 0.95764 35.052C0.65378 34.748 0.412808 34.387 0.248493 33.9898C0.0841768 33.5926 -0.000262135 33.1669 6.11303e-07 32.7371V4.91906C6.11303e-07 0.873062 4.618 -1.43694 7.854 0.991062L10.91 3.28506L24 13.1011L37.09 3.28106L40.146 0.991062C43.38 -1.43494 48 0.873062 48 4.91906Z" fill="white"/>
</svg>
