<svg width="65" height="64" viewBox="0 0 65 64" fill="none" xmlns="http://www.w3.org/2000/svg">
<g opacity="0.45">
<path d="M46.3135 39.1125C47.9468 38.275 50.2135 37.55 50.2135 37.55C50.2135 37.55 43.7635 38.425 37.3468 38.825C29.4968 39.3125 21.0635 39.4125 16.8302 38.9875C6.8135 37.9875 22.3302 35.225 22.3302 35.225C22.3302 35.225 16.3135 34.925 8.89684 37.6C0.146839 40.775 30.5635 42.225 46.3135 39.1125ZM32.0802 35.1C28.9135 29.7625 18.2302 25.075 32.0802 16.875C49.3568 6.65 40.4968 0 40.4968 0C44.0802 10.5625 27.8968 13.7625 22.0468 20.325C18.0635 24.8125 23.9968 29.625 32.0802 35.1ZM51.1802 13.075C51.1968 13.075 21.9802 18.55 35.9302 30.6C40.0468 34.15 34.8468 37.35 34.8468 37.35C34.8468 37.35 45.2968 33.3 40.4968 28.2375C36.0135 23.5125 32.5802 21.1625 51.1802 13.075ZM50.1635 46.8875C50.0724 47.0066 49.9603 47.1159 49.8302 47.2125C71.2135 43 63.3468 32.35 53.1302 35.05C52.5784 35.2021 52.1016 35.4768 51.7635 35.8375C52.3601 35.6756 52.9732 35.5501 53.5968 35.4625C58.7635 34.65 66.1802 40.65 50.1635 46.8875ZM58.0235 54.675C58.0235 54.675 60.4402 56.1625 55.3735 57.325C45.7235 59.5125 15.2402 60.175 6.7735 57.4125C3.7235 56.425 9.44017 55.0375 11.2402 54.75C13.1068 54.45 14.1902 54.5 14.1902 54.5C10.8068 52.7125 -7.69316 58.0125 4.79017 59.525C38.8302 63.675 66.8568 57.6625 58.0235 54.675ZM20.7635 49.5C7.64684 52.25 28.7468 57.925 45.4468 52.5625C43.8181 52.0879 42.2458 51.5109 40.7468 50.8375C33.2968 51.9 29.8468 51.975 23.0802 51.4C17.4968 50.925 20.7635 49.5 20.7635 49.5ZM50.7302 61.65C37.6135 63.5 21.4302 63.2875 11.8468 62.1C11.8468 62.0875 13.8135 63.3125 23.9135 63.8C39.2802 64.5375 62.8802 63.3875 63.4302 57.9375C63.4302 57.9375 62.3635 60 50.7302 61.65ZM43.4635 44.125C33.5968 45.55 27.8802 45.5125 20.6635 44.95C15.0802 44.5125 18.7302 42.4875 18.7302 42.4875C4.2635 46.0875 26.7635 50.1625 46.9802 45.725C45.6735 45.379 44.4763 44.8343 43.4635 44.125Z" fill="#F8F8F8"/>
</g>
</svg>
