<svg width="64" height="64" viewBox="0 0 64 64" fill="none" xmlns="http://www.w3.org/2000/svg">
<g opacity="0.45">
<path d="M4.09407 15.666C-1.57193 23.802 -0.863934 34.374 3.45807 43.01C3.56207 43.228 3.66607 43.426 3.77007 43.624C3.83207 43.76 3.90607 43.894 3.97807 44.02C4.01007 44.092 4.06207 44.176 4.10407 44.238C4.17607 44.384 4.25007 44.508 4.32207 44.644L4.73807 45.352C4.81007 45.488 4.89407 45.612 4.97807 45.738C5.12407 45.988 5.30007 46.238 5.44607 46.488C5.51807 46.592 5.58207 46.696 5.65407 46.8C5.91407 47.206 6.19607 47.602 6.48807 47.988C6.69607 48.27 6.90407 48.55 7.12407 48.832C7.19607 48.926 7.28007 49.03 7.35407 49.134L7.94807 49.852C8.02007 49.936 8.08407 50.03 8.16607 50.112C8.42607 50.424 8.70807 50.738 8.97807 51.04C8.97807 51.05 8.98807 51.05 8.98807 51.06C9.33207 51.488 9.70607 51.882 10.1241 52.238C10.3421 52.456 10.5521 52.676 10.7801 52.884L11.0501 53.144C11.3421 53.426 11.6341 53.696 11.9461 53.966C11.9561 53.966 11.9561 53.966 11.9661 53.976L12.1121 54.102C12.3821 54.342 12.6641 54.582 12.9461 54.8L13.2801 55.082C13.4981 55.26 13.7381 55.436 13.9681 55.614L14.3321 55.896C14.5821 56.084 14.8421 56.26 15.0921 56.448C15.1861 56.51 15.2801 56.584 15.3841 56.636L15.4561 56.698L16.2061 57.198L16.5281 57.406C16.9141 57.656 17.3101 57.896 17.6941 58.136C17.8081 58.188 17.9121 58.25 18.0161 58.314C18.3081 58.48 18.6101 58.648 18.9021 58.804C19.0581 58.898 19.2241 58.97 19.3921 59.054C19.5901 59.168 19.7981 59.272 20.0061 59.388C20.0581 59.398 20.1101 59.42 20.1621 59.45C20.2461 59.492 20.3281 59.534 20.4121 59.576C20.7341 59.732 21.0681 59.888 21.4121 60.034C21.4741 60.066 21.5481 60.086 21.6201 60.128C22.0061 60.294 22.3801 60.462 22.7861 60.618C22.8701 60.638 22.9641 60.69 23.0561 60.722C23.4201 60.858 23.7961 60.992 24.1601 61.128L24.2861 61.17C24.7021 61.316 25.0981 61.44 25.5161 61.576C25.6101 61.596 25.7141 61.638 25.8081 61.66C26.2361 61.796 26.6421 61.942 27.0681 62.024C54.4321 67.014 62.3801 45.576 62.3801 45.576C55.7021 54.274 43.8481 56.566 32.6201 54.014C32.2041 53.92 31.7981 53.784 31.3701 53.66C30.8701 53.514 30.3601 53.348 29.8601 53.18L29.6941 53.118C29.3401 52.992 28.9861 52.858 28.6321 52.722C28.5381 52.68 28.4341 52.65 28.3401 52.608C27.9441 52.452 27.5701 52.296 27.1841 52.128C27.1001 52.096 27.0381 52.056 26.9541 52.024C26.6321 51.878 26.3081 51.732 25.9861 51.576C25.8921 51.534 25.7981 51.482 25.7041 51.43C25.4541 51.316 25.2041 51.18 24.9541 51.054C24.7881 50.97 24.6201 50.888 24.4641 50.804C24.1621 50.638 23.8601 50.47 23.5581 50.304C23.4641 50.242 23.3601 50.178 23.2561 50.126C22.8601 49.886 22.4741 49.646 22.0901 49.408C21.9861 49.346 21.8821 49.272 21.7781 49.2C21.4961 49.022 21.2161 48.836 20.9441 48.648C20.8501 48.586 20.7661 48.522 20.6741 48.45C20.4041 48.272 20.1421 48.086 19.8821 47.888C19.7681 47.794 19.6521 47.71 19.5281 47.618C19.2981 47.44 19.0601 47.264 18.8301 47.066L18.5081 46.816C18.2061 46.576 17.9141 46.326 17.6221 46.066C17.5901 46.034 17.5601 46.014 17.5181 45.982L16.6021 45.148L16.3321 44.898C16.1141 44.668 15.8941 44.46 15.6661 44.242L15.4061 43.972C15.1241 43.69 14.8541 43.41 14.5841 43.108L14.5421 43.066C14.2601 42.764 13.9901 42.44 13.7081 42.128C13.6361 42.044 13.5721 41.95 13.5001 41.868L12.8961 41.128C12.5841 40.732 12.2821 40.336 11.9901 39.93C5.76007 31.43 3.51007 19.7 8.49007 10.076L4.09407 15.666ZM21.6561 8.81201C17.5521 14.708 17.7801 22.582 20.9781 28.812C21.5101 29.854 22.1141 30.864 22.7801 31.832C23.3941 32.708 24.0721 33.748 24.8941 34.458C25.1761 34.78 25.4881 35.094 25.8101 35.416L26.0501 35.656C26.3521 35.948 26.6641 36.24 26.9881 36.52L27.0301 36.562C27.3841 36.874 27.7481 37.176 28.1341 37.468C28.2181 37.53 28.3001 37.604 28.3841 37.666C28.7601 37.948 29.1341 38.228 29.5201 38.5L29.5621 38.532C29.7281 38.646 29.9061 38.762 30.0941 38.876C30.1661 38.928 30.2501 38.99 30.3341 39.032C30.6161 39.22 30.8961 39.386 31.1781 39.564C31.2301 39.584 31.2621 39.606 31.3041 39.626C31.5441 39.772 31.8141 39.908 32.0641 40.042C32.1481 40.094 32.2301 40.136 32.3241 40.188C32.5021 40.272 32.6781 40.366 32.8441 40.458L32.9381 40.49C33.2921 40.668 33.6561 40.834 34.0221 41C34.1161 41.032 34.1881 41.062 34.2721 41.104C34.5641 41.23 34.8661 41.354 35.1581 41.468C35.2941 41.51 35.4181 41.562 35.5441 41.604C35.8141 41.708 36.1061 41.802 36.3781 41.896L36.7421 42.01C37.1381 42.136 37.5341 42.292 37.9401 42.354C59.0661 45.854 63.9501 29.594 63.9501 29.594C59.5441 35.928 51.0341 38.948 41.9501 36.594C41.5441 36.49 41.1481 36.364 40.7521 36.24C40.6261 36.208 40.5121 36.168 40.3881 36.136C40.1181 36.032 39.8261 35.938 39.5661 35.844L39.1801 35.698C38.8781 35.572 38.5761 35.468 38.2841 35.334C38.1901 35.292 38.1061 35.272 38.0441 35.23C37.6681 35.064 37.2941 34.896 36.9301 34.72L36.3781 34.428L36.0661 34.272C35.8161 34.146 35.5861 34.012 35.3581 33.876C35.2961 33.844 35.2441 33.814 35.1921 33.782C34.9101 33.604 34.6201 33.438 34.3481 33.25C34.2541 33.198 34.1701 33.146 34.0881 33.084L33.5361 32.73C33.1501 32.46 32.7761 32.168 32.3901 31.896C32.3061 31.812 32.2241 31.75 32.1401 31.688C28.1501 28.542 25.0041 24.25 23.5041 19.396C21.9321 14.344 22.2861 8.67801 24.9941 4.08401L21.6561 8.81201ZM36.4281 3.68801C34.0121 7.24001 33.7721 11.656 35.4381 15.574C37.2081 19.73 40.8341 23.002 45.0521 24.542C45.2301 24.614 45.3961 24.668 45.5721 24.73L45.8021 24.802C46.0521 24.874 46.3021 24.968 46.5521 25.032C58.2181 27.282 61.3741 19.032 62.2301 17.824C59.4481 21.814 54.7921 22.772 49.0741 21.386C48.6161 21.26 48.1581 21.126 47.6981 20.958C47.1461 20.76 46.5941 20.53 46.0521 20.28C45.0421 19.78 44.0721 19.196 43.1761 18.52C38.0501 14.634 34.8841 7.23801 38.2281 1.20801L36.4281 3.68801Z" fill="#F8F8F8"/>
</g>
</svg>
