<svg width="65" height="64" viewBox="0 0 65 64" fill="none" xmlns="http://www.w3.org/2000/svg">
<g opacity="0.45">
<path d="M0.0234375 4V60H64.0234V4H0.0234375ZM34.852 47.675C34.852 53.125 31.1949 55.6125 25.8663 55.6125C21.052 55.6125 18.2663 53.4375 16.8377 50.8L21.7377 48.2125C22.6806 49.675 23.5377 50.9125 25.6092 50.9125C27.5806 50.9125 28.8377 50.2375 28.8377 47.6V29.7125H34.852V47.675ZM49.0806 55.6125C43.4949 55.6125 39.8806 53.2875 38.1234 50.2375L43.0234 47.7625C44.3092 49.6 45.9949 50.9625 48.952 50.9625C51.4377 50.9625 53.0377 49.875 53.0377 48.3625C53.0377 46.5625 51.4092 45.925 48.652 44.8625L47.152 44.3C42.8092 42.6875 39.9377 40.65 39.9377 36.3625C39.9377 32.4125 43.3806 29.4125 48.7377 29.4125C52.5663 29.4125 55.3092 30.575 57.2806 33.625L52.5949 36.25C51.5663 34.6375 50.452 34 48.7234 34C46.9663 34 45.852 34.975 45.852 36.25C45.852 37.825 46.9663 38.4625 49.552 39.45L51.052 40.0125C56.1663 41.925 59.0377 43.8875 59.0377 48.2875C59.0377 53.0125 54.7806 55.6125 49.0806 55.6125Z" fill="#F8F8F8"/>
</g>
</svg>
