<svg width="64" height="64" viewBox="0 0 64 64" fill="none" xmlns="http://www.w3.org/2000/svg">
<g opacity="0.45">
<path d="M38.5146 6.09332C37.7013 6.10666 36.9146 6.25332 36.2399 6.75466C35.5573 7.20266 34.7839 7.60799 34.3119 8.29599C33.2355 10.3317 32.5909 12.5677 32.4186 14.864C29.7279 13.7627 26.8719 12.9547 23.9466 13.0613C22.1737 13.394 20.4462 13.9346 18.7999 14.672C15.4399 16.424 13.3119 19.8533 12.0532 23.328C11.2947 24.8495 10.7525 26.4697 10.4426 28.1413C10.1573 29.656 9.58392 31.1147 9.49058 32.6613C9.48525 33.712 9.56792 34.7627 9.55192 35.8133C8.42658 36.5147 7.08258 36.4667 5.82392 36.688C4.91725 36.6667 4.03725 36.208 3.11992 36.5013C2.15992 36.96 1.11992 37.2187 0.15725 37.6667C-0.07475 39.0267 -0.285417 40.9333 1.37592 41.464C4.21325 41.4587 7.06125 41.4693 9.89592 41.52C10.4079 44.1333 10.9093 46.8267 12.2906 49.1467C13.9253 51.7787 15.5252 54.5467 18.0159 56.48C20.3839 58.0613 23.4026 58.1253 26.1199 57.656C27.1519 57.5413 27.8692 56.7227 28.7972 56.344C29.3626 56.008 30.2026 55.928 30.4159 55.2027C32.2773 52.1893 30.8506 48.4533 29.1626 45.7093C28.0879 43.824 25.7626 43.4347 23.7812 43.5227C22.6186 43.696 21.8826 44.696 20.9466 45.3013C19.9119 45.928 18.9172 47.2613 19.6986 48.464C20.3679 49.7253 21.1946 51.416 22.8799 51.328C23.9439 51.2053 25.3652 50.9653 25.8293 49.8533C26.0346 48.5067 24.4452 47.8587 23.3759 47.6187C23.4266 48.2773 23.4959 48.936 23.5626 49.6C23.0106 49.2187 22.4559 48.8533 21.8959 48.4853C22.2373 46.7067 24.2159 46.752 25.5759 46.208C26.9626 48.368 28.4239 51.1467 27.2959 53.7147C25.9919 55.3467 23.6426 55.1413 21.8186 54.7147C19.4346 54.3493 17.8533 52.2267 16.8026 50.2293C15.2186 47.4693 13.2746 44.5093 13.6132 41.1973C14.7253 41.1413 15.8372 41.144 16.9466 41.208C18.0079 41.4587 18.9519 42.376 20.0986 41.928C22.5573 41.256 25.1146 41.6613 27.6239 41.6347C29.5972 41.496 31.5812 41.4693 33.5573 41.552C34.2719 41.7467 34.6533 42.6187 35.4772 42.5653C36.4319 42.8853 36.9652 41.9093 37.6826 41.4987C39.2728 41.4211 40.8659 41.4228 42.4559 41.504C43.2106 42.8213 44.3386 44.2293 45.9493 44.416C47.9066 44.488 49.5653 43.1013 50.6239 41.5787C52.0106 41.8907 53.5093 42.3307 54.8533 41.6347C57.7733 40.3973 60.9866 40.3973 63.9999 39.5413V38.6827C61.5813 37.056 58.5946 37.5067 55.8853 36.8293C53.8186 36.4747 51.7199 36.7973 49.6453 36.7707C48.7253 36.1413 47.8239 35.4133 46.6613 35.3387C46.3039 35.496 45.9413 35.64 45.5839 35.7867C46.5333 35.8933 47.5253 36.1067 48.2346 36.8C47.3386 36.7467 46.4106 36.7893 45.5626 36.464C44.4213 36.8827 43.3359 37.5307 43.1573 38.848C42.6719 38.168 43.3786 37.5333 43.6613 36.928C43.0213 35.576 41.4586 34.88 41.0106 33.4213C41.0793 33.3151 41.1731 33.2274 41.2837 33.166C41.3943 33.1046 41.5184 33.0713 41.6449 33.0692C41.7714 33.0671 41.8965 33.0962 42.0091 33.1539C42.1217 33.2116 42.2184 33.2961 42.2906 33.4C42.9146 34.32 43.4266 35.3067 43.8186 36.344C44.3973 36.3787 44.9786 36.416 45.5626 36.464V35.7973C45.2719 35.9173 44.9866 36.0373 44.7039 36.176C44.1999 35.0773 43.7679 33.944 43.4106 32.7867C44.0986 32.952 44.7599 33.2 45.4533 33.3387C48.5893 32.848 51.9573 32.24 54.4133 30.0533C54.9306 29.52 55.8586 29.0667 55.7039 28.192C55.5519 26.928 54.6319 25.9493 54.1759 24.7867C54.8879 24.5173 55.6026 24.2533 56.2906 23.9333C58.7386 21.536 59.9626 18.1067 60.2293 14.7387C59.9839 12.944 59.4773 10.9707 58.0879 9.70932C55.5546 8.42932 52.5679 8.84532 49.9946 9.77599C48.8293 10.24 47.9679 11.1813 46.9999 11.944C46.2106 11.768 45.7279 10.8507 45.2079 10.256C44.2079 8.54932 42.8346 6.96266 40.9519 6.22932C40.1706 6.19999 39.3306 6.07999 38.5146 6.09332ZM39.5679 7.46932C41.1413 7.52266 42.5253 8.81866 43.4159 10.0613C44.0079 11.048 44.8133 11.88 45.7759 12.504C46.8095 15.8468 46.5457 19.4563 45.0373 22.6133C44.5919 23.6133 43.6533 24.2267 42.7333 24.7333C40.3066 25.4453 37.7359 24.3787 36.0106 22.6453L36.0426 22.3947C34.8213 21.824 34.6106 20.3493 34.3999 19.168C33.3599 16.7867 33.6186 14.0587 34.3839 11.64C34.9492 9.74666 36.3999 7.93332 38.4533 7.64532C38.8102 7.51636 39.1886 7.45662 39.5679 7.46932ZM54.4799 10.2027C56.1226 10.208 57.9199 10.9493 58.3199 12.672C59.5999 15.6373 58.1813 18.9227 56.4853 21.4C55.5039 22.32 54.3733 23.072 53.4533 24.0667C52.3199 21.816 49.8293 20.816 47.5253 20.2347C47.9519 18.08 47.6319 15.8933 47.5839 13.728C48.8319 11.5013 51.4239 10.6507 53.7866 10.2507C54.0106 10.2213 54.2453 10.2027 54.4799 10.2027ZM56.5466 14.5227C56.0861 14.6616 55.621 14.7843 55.1519 14.8907C54.8186 15.3733 54.4799 15.8587 54.1359 16.344C54.5119 17.336 55.8319 18.2587 56.7599 17.3573C56.9276 16.8963 56.9953 16.4049 56.9585 15.9157C56.9218 15.4265 56.7813 14.9534 56.5466 14.5227ZM24.5786 14.6453C26.9786 14.616 29.3599 15.3707 31.5146 16.3867C32.5279 16.7947 32.4559 17.9867 32.6826 18.8747C32.8559 19.568 33.0559 20.2507 33.2612 20.9387C33.5972 21.96 34.0399 23.0187 34.9146 23.704C36.3706 24.8187 37.8693 26.016 39.6986 26.4373C41.3318 26.794 43.0396 26.5045 44.4639 25.6293C45.6639 24.552 46.2453 22.944 47.4959 21.9067C48.6693 22.48 49.9679 22.7547 51.0986 23.4213C52.2719 24.1627 52.8399 25.4933 53.5306 26.64C53.7706 27.1573 53.9679 27.6853 54.1759 28.208C52.0799 30.2933 49.0133 30.8427 46.2453 31.488C45.0986 31.8293 44.0346 31.232 43.0826 30.6773C42.5919 30.9467 42.1039 31.2347 41.6106 31.5013C39.8678 32.467 37.8745 32.8851 35.8906 32.7013C35.4012 32.6415 34.9123 32.5775 34.4239 32.5093C34.6479 31.5067 34.9093 30.512 35.1146 29.504C34.8693 29.5253 34.3759 29.5573 34.1279 29.5733C33.3013 30.8427 33.2612 32.3787 33.4266 33.832C33.4666 34.384 33.5012 34.9333 33.5252 35.4853C32.8973 34.8003 32.5146 33.9261 32.4372 33C32.4799 31.9573 32.6106 30.9253 32.7039 29.8853C31.6106 29.4133 31.1812 30.664 30.9786 31.4747C30.9786 31.9227 31.0106 32.368 31.0426 32.8133C29.1386 33.248 27.0959 33.4693 25.2079 32.8427C23.8372 32.3947 22.3412 32.3573 21.0559 31.656C21.0133 31.1227 20.9679 30.5947 20.9119 30.0667C20.5359 29.9973 20.1599 29.9307 19.7866 29.8533C19.2826 31.2053 18.5812 32.576 18.6559 34.0533C18.9093 35.0267 19.7253 35.744 20.3333 36.52C19.4399 36.7813 18.2239 36.5787 17.6239 37.4107C17.2639 39.0133 18.7253 39.9387 19.6826 40.928C18.3066 40.4213 16.7786 39.6933 16.3066 38.1813C16.9999 37.376 17.7839 36.6613 18.6559 36.056C17.3999 34.1947 16.8532 31.408 18.4799 29.6C18.1652 29.2187 17.7946 28.56 17.2079 28.8853C16.7493 29.3173 16.3599 29.8187 15.9172 30.272C14.0506 31.6933 13.3146 33.968 12.1866 35.9253C11.6399 35.9067 11.0933 35.8907 10.5466 35.8907L10.5199 35.2133C10.4003 34.317 10.3798 33.4102 10.4586 32.5093C10.8666 30.92 11.5732 29.4213 11.9732 27.8293L12.1092 27.312L12.3386 26.5307C13.5439 23.248 15.0266 19.88 17.7039 17.52C19.4159 15.824 21.8719 15.36 24.0933 14.6667C24.2533 14.6587 24.4186 14.648 24.5786 14.6453ZM38.2319 15.968C37.2186 15.936 36.2639 16.3547 36.4319 17.5573C36.2852 18.608 37.2933 19.0827 38.0106 19.584C39.6159 19.576 40.3359 17.7547 39.8959 16.4427C39.3928 16.1428 38.8202 15.9792 38.2346 15.968H38.2319ZM16.7279 31.408C16.4923 32.1271 16.4238 32.8905 16.5278 33.64C16.6318 34.3896 16.9054 35.1055 17.3279 35.7333C16.2852 36.2747 15.1252 36.3013 13.9786 36.296C13.7386 34.568 14.8266 33.0907 15.6346 31.6667C15.9999 31.5867 16.3679 31.504 16.7279 31.408ZM19.9626 32.8587C20.9039 33.128 22.0239 33.0987 22.7652 33.8133C22.6532 34.2773 22.5439 34.7413 22.4639 35.2133C21.8513 35.5808 21.2682 35.9953 20.7199 36.4533C20.3566 35.9368 20.1022 35.3517 19.972 34.7338C19.8418 34.1158 19.8386 33.4779 19.9626 32.8587ZM39.0773 33.7227C39.6399 33.784 39.7759 34.4667 40.1439 34.808C40.7733 35.624 41.6719 36.1733 42.4159 36.8747C40.6292 36.9227 38.4826 37.1467 37.4026 35.376C36.6799 35.5733 35.9546 35.864 35.5786 36.5627L34.5119 35.984C34.4986 35.3173 34.5226 34.6453 34.5786 33.9787H35.7972C36.8959 33.9867 37.9946 33.904 39.0773 33.7227ZM24.9279 34.1147C24.9812 35.0107 25.4079 36.0613 24.7412 36.8347C24.0852 36.7787 23.4293 36.7253 22.7866 36.6107C23.6559 36.0907 24.2986 35.264 24.5839 34.2907L24.9279 34.1147ZM31.6213 34.4267C32.4613 35.0667 32.8079 36.1173 33.1973 37.056C30.6959 37.152 28.1893 37.1173 25.6933 36.952C25.8639 36.1253 26.1466 35.3253 26.3652 34.5093C28.1119 34.456 29.8666 34.5093 31.6186 34.4293L31.6213 34.4267ZM33.8239 35.8533C34.2293 36.344 34.6719 36.8 35.1519 37.2187C35.7919 36.48 37.2186 35.28 37.8133 36.704C36.8453 37.168 35.6453 37.5173 35.3226 38.6827L35.2906 38.824C35.4933 39.84 35.7653 40.84 36.1093 41.8187C34.0479 40.472 35.0666 37.6907 33.8239 35.8533ZM4.98392 36.6347C4.93058 37.4213 3.85858 37.7547 3.98925 38.5733C4.23192 39.3467 4.54925 40.0933 4.93325 40.808C3.62392 40.7467 2.29592 40.816 0.999917 40.5733C0.87725 39.8907 0.570583 38.88 1.29325 38.4267C1.98392 38 2.54658 37.3893 2.93325 36.672C3.61325 36.7787 4.30925 36.768 4.98658 36.6347H4.98392ZM6.74392 37.0427C6.18925 38.008 5.51458 39.2027 6.37592 40.2187L5.90658 40.4267C5.50049 39.8753 5.17625 39.2681 4.94392 38.624C5.21592 38.1333 5.46392 37.6267 5.69058 37.1147C6.04258 37.0987 6.39192 37.0747 6.74392 37.0427ZM8.12525 37.272L8.21325 37.4853L8.50658 37.36C8.39992 37.9653 7.95992 38.4027 7.58392 38.8587C8.20525 38.896 8.37325 40.896 7.47458 40.344C7.35935 40.1453 7.24645 39.9453 7.13592 39.744C7.19992 39.1387 7.10392 38.464 7.61858 38.016L7.76525 37.8373L7.99458 37.584L8.12525 37.272ZM18.6399 37.4693C19.5652 37.688 21.0266 37.1467 21.5999 37.912C22.4266 38.0453 23.2079 38.4373 24.0533 38.4587C27.0453 37.5813 30.2292 38.048 33.3066 38.048C33.3226 38.3147 33.3599 38.8427 33.3812 39.1093C31.0639 39.1973 28.7492 39.2053 26.4372 39.1467C25.2319 39.1387 24.0879 38.328 22.8693 38.6933C22.3359 38.7413 21.7386 39.304 21.2692 38.808C20.5226 38.8 19.7706 38.776 19.0212 38.76C18.9012 38.3067 18.7546 37.8533 18.6399 37.4693ZM12.1652 37.5147C13.1652 37.648 14.4292 37.2587 15.1812 38.1147L14.8612 38.8347C12.8879 38.7387 10.9146 38.72 8.93858 38.6613C9.34125 37.3413 11.0719 37.584 12.1652 37.5147ZM54.4853 37.5573C55.8239 37.4987 57.0986 38 58.4266 38.1307C58.4346 38.6827 58.5999 39.272 58.3333 39.792C56.7119 40.1013 55.1733 40.8133 53.5066 40.8533C53.5359 40.4053 53.5599 39.9573 53.5679 39.504L54.3333 39.0053L54.4853 37.5573ZM50.1919 37.5947C50.4639 37.5947 50.7386 37.6053 51.0106 37.6213C51.6213 37.7387 52.0666 38.2267 52.5786 38.5467C51.1066 39.28 49.4293 39.0987 47.8533 38.8853C46.6373 38.72 45.3733 38.944 44.1813 38.5787L44.5146 37.9787C46.4026 37.8187 48.2879 37.576 50.1919 37.5947ZM40.1626 37.8533C40.7412 37.8587 41.3199 37.8693 41.9013 37.8693C41.9599 38.456 41.7119 38.7387 41.1546 38.72C39.7759 38.7573 38.3973 38.752 37.0213 38.672C36.8879 37.856 37.9279 38.008 38.4212 37.8853C38.9999 37.8507 39.5812 37.848 40.1626 37.8533ZM38.7866 39.5787C40.2319 39.5787 41.6746 39.7147 43.0933 39.984C45.0773 39.7253 47.0773 39.9707 49.0533 39.624C49.8693 39.688 51.5866 39.3173 51.3893 40.6133C50.4586 40.7253 49.5919 40.1413 48.6506 40.24C46.7999 40.3547 44.9359 40.5253 43.1039 40.12C41.0053 40.56 38.8613 40.3547 36.7386 40.4853C36.7223 40.2141 36.7036 39.9429 36.6826 39.672C37.3973 39.592 38.1386 39.608 38.7866 39.5787ZM11.0052 39.6107C12.6052 39.6107 14.2132 39.9067 15.8132 39.9627L16.1466 40.344C13.9919 40.3387 11.8212 40.5093 9.67725 40.2853C9.58321 40.1003 9.49076 39.9146 9.39992 39.728C9.93325 39.6427 10.4719 39.6107 11.0052 39.6107ZM20.1413 39.928C21.0479 39.936 21.9626 39.9493 22.8746 39.9333C26.4399 39.976 29.9999 40.0267 33.5573 40.2667C33.4678 40.4146 33.3807 40.564 33.2959 40.7147C29.8186 40.8293 26.3466 40.768 22.8693 40.7547L20.6772 40.6773C20.4986 40.4267 20.3199 40.1707 20.1413 39.928ZM43.1866 40.968C44.3333 41.48 45.4719 42.016 46.6666 42.416C47.3573 42.1387 48.3066 40.6267 48.8693 41.7227C47.9946 42.536 46.7599 43.36 45.5093 43.0827C44.5493 42.6293 43.9333 41.696 43.1866 40.968ZM11.2292 41.1547L12.1092 41.288C13.0772 43.5307 13.1226 46.1147 14.4373 48.2187C15.1946 49.464 15.8186 50.7787 16.5519 52.0373C17.3172 53.3493 18.5839 54.2347 19.7706 55.136C22.3172 57.008 26.4906 56.7253 28.2959 53.968C29.4346 51.5093 28.0186 48.9067 27.0319 46.6613C25.3412 44.0053 20.9252 46.0267 21.0532 48.9227C22.0239 49.504 23.0986 50.6907 24.3119 49.9467C24.2883 49.4732 24.2768 48.9993 24.2773 48.5253C24.5653 48.8453 24.7839 49.2213 25.0666 49.5467C24.3866 50.424 23.2799 50.384 22.2799 50.2453C21.8772 49.7973 21.4613 49.3627 21.0532 48.9227C20.5519 46.0347 24.2346 43.6053 26.6799 45.0667C28.4266 46.1867 28.9146 48.3413 29.6106 50.16C30.4132 52.3493 29.2266 54.9413 27.1466 55.9173C25.5439 56.952 23.5572 56.5413 21.7652 56.5413C19.3199 56.424 17.7253 54.4267 16.1199 52.8427C14.5732 50.944 13.5653 48.6907 12.3599 46.5733C11.7408 44.8272 11.3605 43.0053 11.2292 41.1573V41.1547Z" fill="#F8F8F8"/>
</g>
</svg>
