<svg width="65" height="64" viewBox="0 0 65 64" fill="none" xmlns="http://www.w3.org/2000/svg">
<g opacity="0.45">
<path d="M39.2735 4.5475C36.9497 4.165 33.5485 3.98875 31.2397 4C29.0757 4.00251 26.9157 4.18564 24.7822 4.5475C19.0647 5.5475 18.0235 7.635 18.0235 11.49V16H32.0235V18H13.476C8.28096 18 4.06471 24.2088 4.02346 31.89C4.02346 31.9263 4.02346 31.9625 4.02346 32C4.02165 33.343 4.15271 34.6828 4.41471 36C5.57596 41.785 9.19346 46 13.476 46H16.0235V39.25C16.0235 35.3375 18.6285 31.7563 22.8985 30.9875L24.1322 30.8338H39.2735C39.9094 30.8362 40.5427 30.7521 41.156 30.5838C42.558 30.2094 43.7964 29.3806 44.6771 28.2273C45.5579 27.074 46.0314 25.6612 46.0235 24.21V11.49C46.0235 7.875 42.9385 5.14875 39.2735 4.5475ZM24.3897 13.1875C23.8854 13.1892 23.3919 13.0411 22.9718 12.762C22.5517 12.4829 22.224 12.0853 22.0302 11.6197C21.8364 11.1541 21.7853 10.6414 21.8832 10.1467C21.9812 9.65192 22.2239 9.19742 22.5805 8.8408C22.9371 8.48417 23.3916 8.24149 23.8864 8.14352C24.3811 8.04555 24.8938 8.09671 25.3594 8.29051C25.825 8.48432 26.2226 8.81203 26.5017 9.2321C26.7809 9.65216 26.9289 10.1457 26.9272 10.65C26.9274 10.9833 26.8618 11.3133 26.7344 11.6213C26.6069 11.9292 26.42 12.209 26.1844 12.4447C25.9487 12.6803 25.6689 12.8672 25.361 12.9947C25.053 13.1221 24.723 13.1877 24.3897 13.1875Z" fill="#F8F8F8"/>
<path d="M59.4334 27.125C58.0959 21.7987 54.6322 18 50.5709 18H48.3572V23.9312C48.3572 28.8775 45.1072 32.4587 41.1397 33.0725C40.7389 33.1346 40.334 33.166 39.9284 33.1662H24.7834C24.141 33.1656 23.5012 33.2476 22.8797 33.41C20.0909 34.1425 18.0234 36.4625 18.0234 39.4712V52.1925C18.0234 55.8175 21.6659 57.9425 25.2397 58.9813C29.5159 60.225 34.1747 60.45 39.2922 58.9813C42.6909 58.01 46.0234 56.0462 46.0234 52.1925V48H32.0234V46H50.5709C54.2509 46 57.4397 42.8838 59.0022 38.3363C59.6884 36.2946 60.0334 34.1538 60.0234 32C60.027 30.357 59.8288 28.7197 59.4334 27.125ZM39.5872 50.5C40.0915 50.4983 40.585 50.6464 41.0051 50.9255C41.4252 51.2046 41.7529 51.6022 41.9467 52.0678C42.1405 52.5334 42.1916 53.0461 42.0937 53.5408C41.9957 54.0356 41.753 54.4901 41.3964 54.8467C41.0398 55.2033 40.5853 55.446 40.0905 55.544C39.5958 55.642 39.0831 55.5908 38.6175 55.397C38.1519 55.2032 37.7543 54.8755 37.4752 54.4554C37.196 54.0353 37.048 53.5418 37.0497 53.0375C37.0495 52.7042 37.115 52.3742 37.2425 52.0662C37.37 51.7583 37.5569 51.4785 37.7925 51.2429C38.0282 51.0072 38.308 50.8203 38.6159 50.6928C38.9239 50.5654 39.2539 50.4998 39.5872 50.5Z" fill="#F8F8F8"/>
</g>
</svg>
