<svg width="48" height="49" viewBox="0 0 48 49" fill="none" xmlns="http://www.w3.org/2000/svg">
<g opacity="0.45" clip-path="url(#clip0_212_2)">
<path d="M0.759946 0.731733C0.679385 0.733007 0.600148 0.752426 0.528127 0.788547C0.456106 0.824668 0.393155 0.876561 0.343956 0.940366C0.294757 1.00417 0.260575 1.07825 0.243952 1.15709C0.22733 1.23592 0.228695 1.31749 0.247946 1.39573L6.03595 24.8277C6.04055 24.8549 6.04724 24.8816 6.05595 24.9077L11.8359 48.3237C11.8585 48.4153 11.9049 48.4994 11.9704 48.5673C12.0358 48.6352 12.1181 48.6847 12.2088 48.7107C12.2995 48.7366 12.3955 48.7382 12.487 48.7152C12.5785 48.6922 12.6623 48.6455 12.7299 48.5797L47.6039 15.0317C47.6714 14.9664 47.7206 14.8845 47.7464 14.7942C47.7723 14.7039 47.7739 14.6083 47.7512 14.5172C47.7286 14.426 47.6823 14.3425 47.6171 14.2748C47.552 14.2072 47.4702 14.1578 47.3799 14.1317L35.8119 10.7977C35.7368 10.7549 35.6524 10.7309 35.5659 10.7277L12.7599 4.16173C12.6735 4.1083 12.5736 4.08055 12.4719 4.08173L0.911946 0.751733C0.8625 0.737817 0.81131 0.731081 0.759946 0.731733ZM1.50795 2.03973L11.4199 4.89173L3.97995 12.0597L1.50795 2.03973ZM13.2199 5.41173L22.9479 8.21173L15.6479 15.2417L13.2199 5.41173ZM12.1759 5.65173L14.6099 15.5037L4.85595 12.7037L12.1759 5.65173ZM24.7359 8.72773L34.4919 11.5357L27.1679 18.5957L24.7359 8.72773ZM23.6959 8.98773L26.1119 18.7877L16.4059 16.0037L23.6959 8.98773ZM36.2959 12.0557L46.1899 14.9037L38.7599 22.0517L36.2959 12.0557ZM35.2479 12.2957L37.6779 22.1477L27.9259 19.3517L35.2479 12.2957ZM4.38395 13.6877L14.3119 16.5357L6.85995 23.7077L4.38395 13.6877ZM16.0939 17.0317L25.8479 19.8317L18.5279 26.8857L16.0939 17.0317ZM15.0579 17.3057L17.5299 27.3397L7.60395 24.4757L15.0579 17.3057ZM27.6059 20.3757L37.5359 23.2257L30.0759 30.3977L27.6059 20.3757ZM26.5659 20.6297L29.0359 30.6537L19.1199 27.7937L26.5659 20.6297ZM7.30595 25.5057L17.0519 28.3177L9.73995 35.3637L7.30595 25.5057ZM19.0139 28.8797L28.7399 31.6857L21.4439 38.7057L19.0139 28.8797ZM17.9339 28.9597L20.3619 38.8137L10.6119 36.0137L17.9339 28.9597ZM10.1419 36.9997L20.2159 39.8837L12.6519 47.1597L10.1419 36.9997Z" fill="#F8F8F8"/>
</g>
<defs>
<clipPath id="clip0_212_2">
<rect width="48" height="48" fill="white" transform="translate(0 0.73175)"/>
</clipPath>
</defs>
</svg>
