<svg width="64" height="64" viewBox="0 0 64 64" fill="none" xmlns="http://www.w3.org/2000/svg">
<g opacity="0.45" clip-path="url(#clip0_37_36)">
<path d="M61.7299 6.896L48.5639 0.562002C47.0319 -0.177998 45.21 0.134002 44.012 1.332L18.794 24.342L7.80395 16.008C6.78395 15.226 5.34595 15.29 4.39795 16.154L0.877951 19.362C-0.288049 20.414 -0.288049 22.248 0.867951 23.3L10.4 31.998L0.867951 40.696C-0.288049 41.748 -0.288049 43.582 0.877951 44.634L4.39795 47.842C5.35595 48.706 6.78395 48.77 7.80395 47.988L18.794 39.644L44.0239 62.664C45.2119 63.862 47.034 64.174 48.566 63.434L61.7439 57.09C63.13 56.424 64.004 55.028 64.004 53.486V10.496C64.004 8.964 63.118 7.558 61.734 6.892L61.7299 6.896ZM48.0099 46.532L28.864 32L48.0099 17.468V46.532Z" fill="#F8F8F8"/>
</g>
<defs>
<clipPath id="clip0_37_36">
<rect width="64" height="64" fill="white"/>
</clipPath>
</defs>
</svg>
